<svg width="48" height="48" viewBox="0 0 48 48" fill="none" xmlns="http://www.w3.org/2000/svg">
<g clip-path="url(#clip0_9_1299)">
<path d="M9.97874 37.5C9.97874 37.5 15 34.5 24 34.5C33 34.5 38.0212 37.5 38.0212 37.5L44.9587 16.2393C45.0093 16.0949 45.0156 15.9386 44.9766 15.7906C44.9377 15.6426 44.8553 15.5096 44.7402 15.4088C44.6251 15.308 44.4824 15.2439 44.3305 15.2249C44.1787 15.2058 44.0246 15.2326 43.8881 15.3018L33.87 20.2968C33.6965 20.3826 33.4972 20.4001 33.3115 20.3459C33.1257 20.2917 32.9671 20.1698 32.8669 20.0043L24.66 6.37495C24.5913 6.26245 24.4949 6.16948 24.38 6.10498C24.2651 6.04047 24.1355 6.00659 24.0037 6.00659C23.872 6.00659 23.7424 6.04047 23.6275 6.10498C23.5125 6.16948 23.4161 6.26245 23.3475 6.37495L15.1331 20.01C15.0332 20.1763 14.8742 20.2988 14.6879 20.353C14.5016 20.4072 14.3017 20.3892 14.1281 20.3025L4.12499 15.3112C3.98839 15.2424 3.83438 15.2159 3.68264 15.2351C3.5309 15.2543 3.38834 15.3183 3.27319 15.419C3.15803 15.5196 3.07552 15.6523 3.03621 15.8001C2.99689 15.948 3.00256 16.1041 3.05249 16.2487L9.97874 37.5Z" stroke="black" stroke-width="2" stroke-linecap="round" stroke-linejoin="round"/>
<path d="M16.5 29.1394C21.4637 28.2869 26.5363 28.2869 31.5 29.1394" stroke="black" stroke-width="2" stroke-linecap="round" stroke-linejoin="round"/>
</g>
<defs>
<clipPath id="clip0_9_1299">
<rect width="48" height="48" fill="white"/>
</clipPath>
</defs>
</svg>
