<svg width="19" height="18" viewBox="0 0 19 18" fill="none" xmlns="http://www.w3.org/2000/svg">
<path d="M10.1259 11.7759C10.1276 11.7652 10.1321 11.7556 10.1321 11.7446C10.1321 11.7413 10.1303 11.7386 10.1303 11.7359C10.1297 11.7198 10.125 11.7049 10.1211 11.6897C10.1175 11.6768 10.116 11.6634 10.1106 11.6515C10.1053 11.6395 10.0957 11.6294 10.0883 11.6183C10.079 11.6055 10.0709 11.5924 10.0593 11.5816C10.0569 11.5795 10.056 11.5766 10.0536 11.5748C10.0453 11.5676 10.0348 11.5649 10.0253 11.5589C10.0122 11.5509 9.99993 11.5419 9.9853 11.5369C9.96949 11.5306 9.95367 11.5294 9.93726 11.527C9.92741 11.5258 9.91846 11.521 9.90801 11.521C9.90294 11.521 9.89847 11.5219 9.89339 11.5219C9.8916 11.5219 9.88981 11.5222 9.88802 11.5222C8.96651 11.5267 8.10469 11.8347 7.36044 12.362C7.35745 12.1752 7.35268 11.9881 7.34551 11.8013C7.34551 11.7998 7.34641 11.7983 7.34641 11.7965C7.34641 11.7941 7.34522 11.792 7.34522 11.7899C7.3297 11.3763 7.30463 10.9648 7.27061 10.5601C7.27061 10.5569 7.2724 10.5545 7.2724 10.5515C7.2724 10.544 7.26882 10.5375 7.26793 10.53C7.23241 10.1134 7.18765 9.70399 7.13304 9.30859C7.13304 9.30799 7.13334 9.3074 7.13334 9.3068C7.13334 9.30262 7.13125 9.29934 7.13095 9.29516C6.99607 8.3277 6.80359 7.44379 6.5565 6.72997C6.18438 5.65568 5.68811 4.96753 5.07487 4.96753C5.07337 4.96753 5.07188 4.96842 5.07009 4.96842C5.0683 4.96842 5.06711 4.96753 5.06532 4.96753C4.45237 4.96753 3.95581 5.65568 3.58398 6.72968C3.58398 6.72968 3.58398 6.72998 3.58368 6.73027C3.33629 7.44468 3.14381 8.32919 3.00893 9.29755C3.00893 9.30083 3.00714 9.30381 3.00714 9.3068C3.00714 9.3074 3.00744 9.30769 3.00744 9.30829C2.95253 9.70369 2.90807 10.1128 2.87255 10.53C2.87196 10.5372 2.86808 10.544 2.86808 10.5515C2.86808 10.5548 2.86957 10.5572 2.86987 10.5601C2.83585 10.9654 2.81078 11.3775 2.79526 11.7917C2.79526 11.7935 2.79437 11.795 2.79437 11.7968C2.79437 11.798 2.79497 11.7992 2.79497 11.8004C2.7881 11.9899 2.78303 12.1797 2.78005 12.3688C2.034 11.8377 1.1689 11.5267 0.243508 11.5222C0.242015 11.5222 0.240523 11.5222 0.239031 11.5219C0.23366 11.5219 0.228885 11.521 0.223812 11.521C0.213069 11.521 0.203818 11.5258 0.193374 11.5273C0.177558 11.5294 0.162338 11.5312 0.147119 11.5366C0.1319 11.5422 0.119068 11.5512 0.105639 11.5595C0.0966868 11.5655 0.0868391 11.5676 0.0784835 11.5748C0.0760961 11.5769 0.0752009 11.5795 0.073112 11.5813C0.0611753 11.5924 0.0528197 11.6058 0.0435688 11.6192C0.0361084 11.63 0.0271559 11.6398 0.0217844 11.6515C0.0161145 11.6634 0.0146224 11.6768 0.0110414 11.69C0.00716197 11.7055 0.00238731 11.7204 0.00179047 11.7359C0.00179047 11.7392 0 11.7416 0 11.7446C0 11.7556 0.00477467 11.7649 0.00626675 11.7756C0.00835566 11.7914 0.0101461 11.8066 0.0155176 11.8216C0.0211875 11.8365 0.0295432 11.849 0.0381973 11.8624C0.0438672 11.8714 0.0465529 11.8815 0.0537149 11.8902C0.976119 12.9708 1.50014 14.0832 1.96238 15.0647C2.70335 16.6389 3.28885 17.8821 5.06562 17.8821C6.84239 17.8821 7.42788 16.6389 8.16914 15.0647C8.63139 14.0832 9.15511 12.9708 10.0778 11.8902C10.0847 11.8818 10.0874 11.8714 10.093 11.8624C10.1017 11.849 10.1106 11.8365 10.116 11.8213C10.1223 11.806 10.1238 11.7911 10.1259 11.7759ZM5.81195 14.0624H4.32136C4.15067 13.7777 3.96267 13.5097 3.75527 13.265H6.37835C6.17065 13.5097 5.98265 13.7777 5.81195 14.0624ZM5.56815 14.51C5.35985 14.9296 5.18797 15.3784 5.06681 15.8552C4.94565 15.3784 4.77376 14.9296 4.56547 14.51H5.56815ZM3.94805 7.04033H6.19452C6.27181 7.28205 6.34522 7.54913 6.41356 7.8374H3.72901C3.79735 7.54883 3.87076 7.28205 3.94805 7.04033ZM6.80538 10.3271H3.33719C3.36285 10.0522 3.3924 9.78606 3.42582 9.53001H6.71675C6.75017 9.78635 6.77972 10.0522 6.80538 10.3271ZM6.51234 8.28472C6.56337 8.53659 6.61052 8.80337 6.65319 9.08239H3.48938C3.53235 8.80337 3.5792 8.53659 3.63023 8.28472H6.51234ZM3.29959 10.7747H6.84328C6.86268 11.0337 6.87879 11.2996 6.89073 11.5724H3.25184C3.26408 11.2996 3.28019 11.0337 3.29959 10.7747ZM5.06681 5.41456C5.0683 5.41456 5.06979 5.41366 5.07158 5.41366C5.07337 5.41366 5.07457 5.41456 5.07636 5.41456C5.40103 5.41456 5.73974 5.83711 6.03666 6.59241H4.1068C4.40343 5.83711 4.74183 5.41456 5.06681 5.41456ZM3.23573 12.02H6.90684C6.91311 12.2477 6.91639 12.4802 6.91699 12.7162C6.87969 12.7493 6.84209 12.7828 6.80538 12.8174H3.32794C3.29422 12.7857 3.2599 12.7553 3.22558 12.7243C3.22618 12.4858 3.22946 12.2507 3.23573 12.02ZM2.36823 14.8738C1.95075 13.9869 1.48313 12.9958 0.720675 12.0024C2.97193 12.2999 4.73915 14.5998 4.83315 17.424C3.52221 17.3205 3.05459 16.3315 2.36823 14.8738ZM7.76509 14.8738C7.07843 16.3318 6.61081 17.3205 5.29987 17.424C5.36135 15.5807 6.13305 13.9609 7.2912 12.9755C7.29538 12.9714 7.29956 12.9684 7.30344 12.9642C7.91668 12.4458 8.63587 12.105 9.41234 12.0024C8.65019 12.9955 8.18287 13.9866 7.76509 14.8738Z" fill="black"/>
<path d="M18.5471 6.9717C18.5528 6.95648 18.5543 6.94096 18.5563 6.92515C18.5578 6.9147 18.5626 6.90575 18.5626 6.89471C18.5626 6.89172 18.5608 6.88904 18.5608 6.88635C18.5602 6.86994 18.5555 6.85472 18.5513 6.8389C18.548 6.82637 18.5462 6.81354 18.5411 6.8016C18.5355 6.78937 18.5262 6.77922 18.5184 6.76818C18.5095 6.75535 18.5011 6.74222 18.4898 6.73147C18.4874 6.72938 18.4865 6.7264 18.4841 6.72461C18.4758 6.71745 18.4653 6.71506 18.4564 6.70939C18.4429 6.70074 18.4304 6.69208 18.4152 6.68641C18.4006 6.68104 18.3857 6.67985 18.3707 6.67746C18.36 6.67567 18.3501 6.6709 18.3388 6.6709C18.3331 6.6709 18.3284 6.67179 18.3227 6.67179C18.3218 6.67179 18.3212 6.67179 18.3203 6.67179C17.3982 6.67597 16.5361 6.98423 15.7915 7.51183C15.7882 7.32502 15.7835 7.13792 15.7766 6.95111C15.7766 6.94932 15.7775 6.94812 15.7775 6.94633C15.7775 6.94395 15.7763 6.94216 15.776 6.93977C15.7605 6.52616 15.7357 6.11465 15.7017 5.7097C15.702 5.70671 15.7035 5.70433 15.7035 5.70134C15.7035 5.69388 15.6999 5.68761 15.699 5.68015C15.6638 5.26356 15.6187 4.85414 15.5641 4.45903C15.5641 4.45844 15.5647 4.45754 15.5647 4.45695C15.5647 4.45217 15.5623 4.44859 15.562 4.44382C15.4275 3.47814 15.2353 2.59632 14.9888 1.88311C14.9882 1.88161 14.9879 1.87982 14.987 1.87803C14.6152 0.804928 14.1189 0.117676 13.5059 0.117676C13.5045 0.117676 13.503 0.118571 13.5015 0.118571C13.5 0.118571 13.4985 0.117676 13.497 0.117676C12.8838 0.117676 12.3875 0.805525 12.0154 1.87893C12.0151 1.87952 12.0148 1.88042 12.0145 1.88102C11.7668 2.59632 11.574 3.48232 11.4391 4.45217C11.4391 4.45366 11.4382 4.45516 11.4382 4.45695C11.4382 4.45724 11.4382 4.45724 11.4382 4.45754C11.3833 4.85294 11.3389 5.26267 11.3033 5.67956C11.3024 5.68702 11.2989 5.69358 11.2989 5.70134C11.2989 5.70433 11.3007 5.70701 11.3007 5.71C11.2666 6.11554 11.2416 6.52825 11.2261 6.94275C11.2261 6.94395 11.2255 6.94484 11.2255 6.94604C11.2255 6.94693 11.2261 6.94753 11.2261 6.94842C11.2192 7.13792 11.2141 7.32801 11.2108 7.5178C10.4645 6.98632 9.59938 6.67567 8.6737 6.67149C8.6728 6.67149 8.67191 6.67149 8.67101 6.67149C8.66534 6.67149 8.65997 6.6706 8.6546 6.6706C8.64296 6.6706 8.63341 6.67537 8.62237 6.67716C8.60745 6.67925 8.59283 6.68074 8.5785 6.68611C8.56298 6.69178 8.54985 6.70074 8.53613 6.70969C8.52747 6.71536 8.51733 6.71745 8.50957 6.72431C8.50718 6.7261 8.50628 6.72909 8.5042 6.73118C8.49196 6.74222 8.48361 6.75594 8.47435 6.76907C8.46689 6.77982 8.45794 6.78937 8.45257 6.801C8.4469 6.81294 8.44541 6.82637 8.44183 6.8395C8.43795 6.85502 8.43317 6.86994 8.43258 6.88576C8.43258 6.88874 8.43079 6.89143 8.43079 6.89441C8.43079 6.90545 8.43556 6.9147 8.43705 6.92544C8.43914 6.94096 8.44093 6.95618 8.4463 6.9711C8.45197 6.98632 8.46063 6.99915 8.46958 7.01258C8.47525 7.02153 8.47764 7.03138 8.4845 7.03974C9.40691 8.1206 9.93063 9.2328 10.3929 10.2143C11.1341 11.7884 11.7196 13.0319 13.4967 13.0319C15.2735 13.0319 15.8587 11.7884 16.5996 10.2143C17.0619 9.2328 17.5856 8.1203 18.508 7.03974C18.5149 7.03138 18.5176 7.02124 18.5232 7.01258C18.5328 6.99945 18.5414 6.98662 18.5471 6.9717ZM14.2427 9.2131H12.7524C12.5818 8.92841 12.3938 8.66073 12.1864 8.41573H14.8091C14.6014 8.66073 14.4131 8.92841 14.2427 9.2131ZM13.9989 9.66073C13.7909 10.0803 13.619 10.5291 13.4976 11.0057C13.3764 10.5291 13.2045 10.0803 12.9963 9.66073H13.9989ZM12.3788 2.19077H14.6247C14.7023 2.43279 14.7754 2.69957 14.8438 2.98814H12.1595C12.2281 2.69957 12.3012 2.43249 12.3788 2.19077ZM15.2356 5.47783H11.7677C11.7933 5.20328 11.8229 4.9368 11.8563 4.68076H15.1472C15.1807 4.9368 15.2099 5.20328 15.2356 5.47783ZM14.9425 3.43547C14.9939 3.68733 15.0407 3.95411 15.0837 4.23313H11.9199C11.9631 3.95411 12.01 3.68733 12.061 3.43547H14.9425ZM11.7298 5.92545H15.2735C15.2929 6.18448 15.309 6.45007 15.3209 6.72282H11.6823C11.6943 6.45007 11.7104 6.18448 11.7298 5.92545ZM13.4976 0.5653C13.4991 0.5653 13.5006 0.564405 13.5021 0.564405C13.5036 0.564405 13.5051 0.5653 13.5065 0.5653C13.8312 0.5653 14.1699 0.987857 14.4666 1.74285H12.5376C12.8342 0.987857 13.1729 0.5653 13.4976 0.5653ZM11.6659 7.17044H15.3373C15.3436 7.39843 15.3466 7.6309 15.3475 7.86695C15.3099 7.90037 15.2726 7.93349 15.2359 7.96811H11.759C11.7253 7.93618 11.6907 7.90574 11.6558 7.87471C11.6564 7.63597 11.6599 7.40082 11.6659 7.17044ZM10.7987 10.0242C10.3812 9.13731 9.91362 8.14597 9.15116 7.15254C11.4027 7.45036 13.1702 9.75055 13.2642 12.5745C11.953 12.4712 11.4854 11.482 10.7987 10.0242ZM16.1959 10.0242C15.5092 11.4823 15.0419 12.4712 13.731 12.5748C13.7921 10.7305 14.5647 9.11015 15.7235 8.12448C15.7268 8.1215 15.73 8.11881 15.733 8.11553C16.3469 7.59658 17.0661 7.25519 17.8428 7.15254C17.081 8.14597 16.6134 9.13701 16.1959 10.0242Z" fill="black"/>
</svg>
