<svg width="180" height="49" viewBox="0 0 180 49" fill="none" xmlns="http://www.w3.org/2000/svg">
<path d="M173.333 49H6.66667C3.00167 49 0 46.2422 0 42.875V6.125C0 2.75778 3.00167 -9.53674e-07 6.66667 -9.53674e-07H173.333C176.998 -9.53674e-07 180 2.75778 180 6.125V42.875C180 46.2422 176.998 49 173.333 49Z" fill="black"/>
<path d="M13.0631 9.23488C12.6954 9.61157 12.4825 10.198 12.4825 10.9575V38.0484C12.4825 38.8079 12.6954 39.3944 13.0631 39.7711L13.1538 39.8538L28.6674 24.6791V24.3208L13.1538 9.14607L13.0631 9.23488Z" fill="url(#paint0_linear_9_1696)"/>
<path d="M33.8328 29.7397L28.6674 24.679V24.3207L33.8391 19.2599L33.9549 19.3257L40.0795 22.7358C41.8274 23.7036 41.8274 25.2961 40.0795 26.2699L33.9549 29.6739L33.8328 29.7397Z" fill="url(#paint1_linear_9_1696)"/>
<path d="M33.955 29.674L28.6674 24.4999L13.0631 39.7711C13.6437 40.3683 14.5904 40.4403 15.667 39.8431L33.955 29.674Z" fill="url(#paint2_linear_9_1696)"/>
<path d="M33.955 19.3259L15.667 9.15688C14.5904 8.56581 13.6437 8.63778 13.0631 9.23497L28.6674 24.5L33.955 19.3259Z" fill="url(#paint3_linear_9_1696)"/>
<path d="M59.3597 12.5486C59.3597 13.5715 59.0467 14.3907 58.4302 15.0017C57.7213 15.726 56.7981 16.0904 55.6667 16.0904C54.5854 16.0904 53.6622 15.7199 52.9048 14.9894C52.1459 14.2483 51.7672 13.3388 51.7672 12.25C51.7672 11.1613 52.1459 10.2518 52.9048 9.51676C53.6622 8.78023 54.5854 8.40967 55.6667 8.40967C56.205 8.40967 56.7183 8.51839 57.2081 8.72051C57.6963 8.92417 58.0938 9.19979 58.3817 9.53973L57.7276 10.1859C57.2253 9.60558 56.5415 9.31923 55.6667 9.31923C54.8781 9.31923 54.1942 9.58873 53.6137 10.1323C53.0394 10.6774 52.7515 11.3834 52.7515 12.25C52.7515 13.1167 53.0394 13.8288 53.6137 14.3739C54.1942 14.9114 54.8781 15.187 55.6667 15.187C56.5039 15.187 57.2081 14.9114 57.7636 14.3678C58.1297 14.0079 58.3379 13.5118 58.3926 12.8779H55.6667V11.9928H59.3034C59.3472 12.1842 59.3597 12.3695 59.3597 12.5486Z" fill="white" stroke="white" stroke-width="0.16" stroke-miterlimit="10"/>
<path d="M65.1291 9.48003H61.7132V11.8075H64.7927V12.6926H61.7132V15.0201H65.1291V15.922H60.7461V8.57812H65.1291V9.48003Z" fill="white" stroke="white" stroke-width="0.16" stroke-miterlimit="10"/>
<path d="M69.2008 15.922H68.2337V9.48003H66.1384V8.57812H71.2976V9.48003H69.2008V15.922Z" fill="white" stroke="white" stroke-width="0.16" stroke-miterlimit="10"/>
<path d="M75.0314 15.922V8.57812H75.9969V15.922H75.0314Z" fill="white" stroke="white" stroke-width="0.16" stroke-miterlimit="10"/>
<path d="M80.2766 15.922H79.3173V9.48003H77.2142V8.57812H82.3797V9.48003H80.2766V15.922Z" fill="white" stroke="white" stroke-width="0.16" stroke-miterlimit="10"/>
<path d="M92.1472 14.9772C91.407 15.7199 90.49 16.0904 89.3962 16.0904C88.2962 16.0904 87.3792 15.7199 86.639 14.9772C85.9004 14.2361 85.5327 13.3265 85.5327 12.25C85.5327 11.1736 85.9004 10.264 86.639 9.52289C87.3792 8.78023 88.2962 8.40967 89.3962 8.40967C90.4838 8.40967 91.4008 8.78023 92.1409 9.52901C92.8858 10.2763 93.2535 11.1797 93.2535 12.25C93.2535 13.3265 92.8858 14.2361 92.1472 14.9772ZM87.3542 14.3616C87.9112 14.9114 88.5888 15.187 89.3962 15.187C90.1974 15.187 90.8813 14.9114 91.4321 14.3616C91.9876 13.8119 92.2692 13.106 92.2692 12.25C92.2692 11.3941 91.9876 10.6882 91.4321 10.1385C90.8813 9.58873 90.1974 9.31311 89.3962 9.31311C88.5888 9.31311 87.9112 9.58873 87.3542 10.1385C86.7987 10.6882 86.517 11.3941 86.517 12.25C86.517 13.106 86.7987 13.8119 87.3542 14.3616Z" fill="white" stroke="white" stroke-width="0.16" stroke-miterlimit="10"/>
<path d="M94.6102 15.922V8.57812H95.7838L99.433 14.2897H99.4752L99.433 12.8779V8.57812H100.398V15.922H99.3907L95.5695 9.92869H95.5272L95.5695 11.3466V15.922H94.6102Z" fill="white" stroke="white" stroke-width="0.16" stroke-miterlimit="10"/>
<path d="M85.2949 26.6468C82.3546 26.6468 79.9526 28.8364 79.9526 31.8576C79.9526 34.8543 82.3546 37.0669 85.2949 37.0669C88.2414 37.0669 90.6434 34.8543 90.6434 31.8576C90.6434 28.8364 88.2414 26.6468 85.2949 26.6468ZM85.2949 35.015C83.6816 35.015 82.2936 33.7119 82.2936 31.8576C82.2936 29.9788 83.6816 28.6986 85.2949 28.6986C86.9082 28.6986 88.3025 29.9788 88.3025 31.8576C88.3025 33.7119 86.9082 35.015 85.2949 35.015ZM73.6386 26.6468C70.692 26.6468 68.2963 28.8364 68.2963 31.8576C68.2963 34.8543 70.692 37.0669 73.6386 37.0669C76.5836 37.0669 78.9809 34.8543 78.9809 31.8576C78.9809 28.8364 76.5836 26.6468 73.6386 26.6468ZM73.6386 35.015C72.0237 35.015 70.631 33.7119 70.631 31.8576C70.631 29.9788 72.0237 28.6986 73.6386 28.6986C75.2519 28.6986 76.6399 29.9788 76.6399 31.8576C76.6399 33.7119 75.2519 35.015 73.6386 35.015ZM59.7681 28.2438V30.458H65.1714C65.0133 31.6953 64.5908 32.6048 63.943 33.2388C63.1543 34.0044 61.926 34.8542 59.7681 34.8542C56.4428 34.8542 53.839 32.2282 53.839 28.9743C53.839 25.7203 56.4428 23.0943 59.7681 23.0943C61.566 23.0943 62.8742 23.7818 63.8397 24.673L65.4343 23.1126C64.0838 21.8509 62.2874 20.8816 59.7681 20.8816C55.2082 20.8816 51.376 24.5122 51.376 28.9743C51.376 33.4363 55.2082 37.0669 59.7681 37.0669C62.2327 37.0669 64.0838 36.2768 65.5391 34.7945C67.0304 33.3352 67.4951 31.2834 67.4951 29.6266C67.4951 29.1121 67.4513 28.6389 67.3731 28.2438H59.7681ZM116.486 29.9604C116.047 28.7951 114.69 26.6468 111.926 26.6468C109.188 26.6468 106.908 28.7583 106.908 31.8576C106.908 34.7762 109.165 37.0669 112.189 37.0669C114.635 37.0669 116.047 35.6076 116.627 34.7578L114.812 33.5741C114.206 34.4408 113.382 35.015 112.189 35.015C111.005 35.015 110.155 34.4837 109.611 33.4363L116.732 30.553L116.486 29.9604ZM109.226 31.6953C109.165 29.6863 110.82 28.6573 112.006 28.6573C112.936 28.6573 113.724 29.1121 113.987 29.7628L109.226 31.6953ZM103.437 36.7499H105.778V21.4374H103.437V36.7499ZM99.6035 27.8074H99.5253C98.9995 27.198 97.9965 26.6468 96.7259 26.6468C94.0594 26.6468 91.6214 28.9375 91.6214 31.8744C91.6214 34.7945 94.0594 37.0669 96.7259 37.0669C97.9965 37.0669 98.9995 36.5111 99.5253 35.8832H99.6035V36.6305C99.6035 38.6227 98.516 39.693 96.7618 39.693C95.3316 39.693 94.4444 38.6824 94.0782 37.8325L92.0424 38.664C92.6292 40.0452 94.183 41.7449 96.7618 41.7449C99.5065 41.7449 101.822 40.1646 101.822 36.3197V26.9637H99.6035V27.8074ZM96.9262 35.015C95.3128 35.015 93.9624 33.6936 93.9624 31.8744C93.9624 30.0385 95.3128 28.6986 96.9262 28.6986C98.516 28.6986 99.7694 30.0385 99.7694 31.8744C99.7694 33.6936 98.516 35.015 96.9262 35.015ZM127.446 21.4374H121.847V36.7499H124.182V30.948H127.446C130.039 30.948 132.582 29.1121 132.582 26.192C132.582 23.2734 130.033 21.4374 127.446 21.4374ZM127.507 28.8181H124.182V23.5674H127.507C129.251 23.5674 130.246 24.9838 130.246 26.192C130.246 27.3772 129.251 28.8181 127.507 28.8181ZM141.94 26.6177C140.253 26.6177 138.499 27.3465 137.777 28.962L139.849 29.8118C140.295 28.962 141.115 28.6864 141.982 28.6864C143.193 28.6864 144.421 29.3984 144.44 30.6556V30.8163C144.018 30.5775 143.113 30.2238 142.001 30.2238C139.769 30.2238 137.496 31.4258 137.496 33.6691C137.496 35.7209 139.323 37.0424 141.378 37.0424C142.949 37.0424 143.816 36.3488 144.36 35.5418H144.44V36.7254H146.695V30.8516C146.695 28.1367 144.623 26.6177 141.94 26.6177ZM141.658 35.0089C140.894 35.0089 139.83 34.6383 139.83 33.7119C139.83 32.5268 141.157 32.072 142.306 32.072C143.334 32.072 143.816 32.294 144.44 32.5865C144.257 34.0044 143.01 35.0089 141.658 35.0089ZM154.91 26.953L152.227 33.591H152.147L149.372 26.953H146.855L151.023 36.2293L148.645 41.3912H151.084L157.508 26.953H154.91ZM133.865 36.7499H136.206V21.4374H133.865V36.7499Z" fill="white"/>
<defs>
<linearGradient id="paint0_linear_9_1696" x1="27.29" y1="38.3305" x2="6.73639" y2="17.3264" gradientUnits="userSpaceOnUse">
<stop stop-color="#00A0FF"/>
<stop offset="0.0066" stop-color="#00A1FF"/>
<stop offset="0.2601" stop-color="#00BEFF"/>
<stop offset="0.5122" stop-color="#00D2FF"/>
<stop offset="0.7604" stop-color="#00DFFF"/>
<stop offset="1" stop-color="#00E3FF"/>
</linearGradient>
<linearGradient id="paint1_linear_9_1696" x1="42.3556" y1="24.4981" x2="12.0647" y2="24.4981" gradientUnits="userSpaceOnUse">
<stop stop-color="#FFE000"/>
<stop offset="0.4087" stop-color="#FFBD00"/>
<stop offset="0.7754" stop-color="#FFA500"/>
<stop offset="1" stop-color="#FF9C00"/>
</linearGradient>
<linearGradient id="paint2_linear_9_1696" x1="31.0798" y1="21.6872" x2="3.2074" y2="-6.7961" gradientUnits="userSpaceOnUse">
<stop stop-color="#FF3A44"/>
<stop offset="1" stop-color="#C31162"/>
</linearGradient>
<linearGradient id="paint3_linear_9_1696" x1="9.13518" y1="48.7842" x2="21.5814" y2="36.0652" gradientUnits="userSpaceOnUse">
<stop stop-color="#32A071"/>
<stop offset="0.0685" stop-color="#2DA771"/>
<stop offset="0.4762" stop-color="#15CF74"/>
<stop offset="0.8009" stop-color="#06E775"/>
<stop offset="1" stop-color="#00F076"/>
</linearGradient>
</defs>
</svg>
