<svg width="477" height="510" viewBox="0 0 477 510" fill="none" xmlns="http://www.w3.org/2000/svg">
<path d="M118.603 53.965C122.661 53.965 126.574 54.0998 130.245 54.3531C135.764 50.3054 147.999 47.4919 162.206 47.4919C181.582 47.4919 197.293 52.7308 197.293 59.1877C197.293 59.9584 197.067 60.713 196.641 61.446C214.158 61.8341 227.427 63.672 227.427 65.8818C227.427 68.3718 210.557 70.393 189.748 70.393C184.627 70.393 179.744 70.269 175.292 70.0481C171.25 70.5924 166.836 70.8889 162.211 70.8889C154.601 70.8889 147.557 70.0804 141.811 68.7114C135.376 69.7678 127.334 70.393 118.608 70.393C97.4805 70.393 80.3573 66.7172 80.3573 62.1844C80.3573 57.6516 97.4859 53.9758 118.608 53.9758L118.603 53.965Z" fill="white"/>
<path d="M56.1578 457.113H0.35228C0.35228 457.113 -2.50968 445.606 8.08118 443.606C18.672 441.601 22.1053 450.36 22.1053 450.36C22.1053 450.36 20.1003 432.158 33.8388 432.158C47.5773 432.158 47.5773 451.621 47.5773 451.621C47.5773 451.621 55.5918 446.587 56.1632 457.118L56.1578 457.113Z" fill="#3E6038"/>
<path d="M57.7638 306.561C57.7638 306.561 57.7638 273.635 21.577 270.045C21.577 270.045 47.9437 280.674 57.7638 321.259V306.561Z" fill="#5A8141"/>
<path d="M60.0167 275.667C60.0167 275.667 69.1416 249.683 69.853 231.121C69.853 231.121 75.4314 252.335 66.1664 284.635L60.0167 275.667Z" fill="#5A7029"/>
<mask id="mask0_28_4189" style="mask-type:luminance" maskUnits="userSpaceOnUse" x="60" y="242" width="52" height="56">
<path d="M96.7263 279.553C84.1143 293.588 69.1524 300.708 63.3099 295.453C57.4674 290.203 62.9596 274.567 75.5716 260.538C88.1836 246.503 103.146 239.389 108.988 244.638C114.831 249.888 109.338 265.523 96.7263 279.553Z" fill="white"/>
</mask>
<g mask="url(#mask0_28_4189)">
<path d="M96.7263 279.553C84.1143 293.588 69.1524 300.708 63.3099 295.453C57.4674 290.203 62.9596 274.567 75.5716 260.538C88.1836 246.503 103.146 239.389 108.988 244.638C114.831 249.888 109.338 265.523 96.7263 279.553Z" fill="#F6EE61"/>
<path d="M112.966 240.213C112.966 240.213 85.6557 257.169 59.8334 299.328" stroke="#CBA950" stroke-width="0.55" stroke-miterlimit="10"/>
<path d="M110.001 237.545C110.001 237.545 82.6914 254.502 56.8691 296.66" stroke="#CBA950" stroke-width="0.55" stroke-miterlimit="10"/>
<path d="M107.031 234.877C107.031 234.877 79.7216 251.833 53.8993 293.992" stroke="#CBA950" stroke-width="0.55" stroke-miterlimit="10"/>
<path d="M111.769 239.135C111.769 239.135 97.8097 268.089 58.637 298.25" stroke="#CBA950" stroke-width="0.55" stroke-miterlimit="10"/>
<path d="M114.733 241.803C114.733 241.803 100.774 270.757 61.6013 300.918" stroke="#CBA950" stroke-width="0.55" stroke-miterlimit="10"/>
<path d="M117.703 244.465C117.703 244.465 103.744 273.419 64.5711 303.58" stroke="#CBA950" stroke-width="0.55" stroke-miterlimit="10"/>
<path d="M89.6496 234.921C94.5166 237.335 100.672 240.979 106.978 246.428C114.432 252.869 119.444 259.536 122.656 264.591" stroke="#CBA950" stroke-width="0.55" stroke-miterlimit="10"/>
<path d="M86.9062 237.971C91.7732 240.386 97.9283 244.029 104.234 249.478C111.688 255.919 116.701 262.586 119.913 267.642" stroke="#CBA950" stroke-width="0.55" stroke-miterlimit="10"/>
<path d="M84.1575 241.027C89.0244 243.442 95.1795 247.085 101.486 252.534C108.94 258.975 113.952 265.642 117.164 270.698" stroke="#CBA950" stroke-width="0.55" stroke-miterlimit="10"/>
<path d="M81.414 244.083C86.281 246.498 92.4361 250.141 98.7421 255.59C106.196 262.031 111.209 268.698 114.421 273.754" stroke="#CBA950" stroke-width="0.55" stroke-miterlimit="10"/>
<path d="M78.6707 247.134C83.5377 249.548 89.6928 253.192 95.9988 258.641C103.453 265.082 108.465 271.749 111.678 276.804" stroke="#CBA950" stroke-width="0.55" stroke-miterlimit="10"/>
<path d="M75.9272 250.189C80.7942 252.604 86.9493 256.248 93.2553 261.697C100.709 268.137 105.722 274.804 108.934 279.86" stroke="#CBA950" stroke-width="0.55" stroke-miterlimit="10"/>
<path d="M73.1786 253.24C78.0455 255.655 84.2006 259.298 90.5066 264.747C97.9606 271.188 102.973 277.855 106.185 282.911" stroke="#CBA950" stroke-width="0.55" stroke-miterlimit="10"/>
<path d="M70.4352 256.296C75.3021 258.711 81.4572 262.354 87.7632 267.804C95.2172 274.244 100.23 280.911 103.442 285.967" stroke="#CBA950" stroke-width="0.55" stroke-miterlimit="10"/>
<path d="M67.6917 259.347C72.5587 261.761 78.7138 265.405 85.0198 270.854C92.4738 277.295 97.4863 283.962 100.699 289.017" stroke="#CBA950" stroke-width="0.55" stroke-miterlimit="10"/>
<path d="M64.9484 262.403C69.8153 264.817 75.9704 268.461 82.2764 273.91C89.7304 280.351 94.7429 287.018 97.9552 292.073" stroke="#CBA950" stroke-width="0.55" stroke-miterlimit="10"/>
<path d="M62.1996 265.453C67.0666 267.868 73.2217 271.511 79.5277 276.96C86.9817 283.401 91.9942 290.068 95.2065 295.124" stroke="#CBA950" stroke-width="0.55" stroke-miterlimit="10"/>
<path d="M59.4562 268.509C64.3231 270.924 70.4782 274.567 76.7842 280.016C84.2383 286.457 89.2507 293.124 92.463 298.18" stroke="#CBA950" stroke-width="0.55" stroke-miterlimit="10"/>
<path d="M56.7129 271.565C61.5798 273.98 67.7349 277.623 74.0409 283.072C81.4949 289.513 86.5074 296.18 89.7197 301.236" stroke="#CBA950" stroke-width="0.55" stroke-miterlimit="10"/>
<path d="M53.9695 274.616C58.8364 277.031 64.9915 280.674 71.2975 286.123C78.7515 292.564 83.764 299.231 86.9763 304.287" stroke="#CBA950" stroke-width="0.55" stroke-miterlimit="10"/>
<path d="M51.2207 277.672C56.0877 280.087 62.2428 283.73 68.5488 289.179C76.0028 295.62 81.0153 302.287 84.2276 307.343" stroke="#CBA950" stroke-width="0.55" stroke-miterlimit="10"/>
<path d="M48.4772 280.723C53.3442 283.137 59.4993 286.781 65.8053 292.23C73.2593 298.671 78.2718 305.338 81.4841 310.393" stroke="#CBA950" stroke-width="0.55" stroke-miterlimit="10"/>
</g>
<path d="M67.1312 295.577C67.1312 295.577 99.8794 274.832 75.5015 248.848C75.5015 248.848 47.5772 297.328 67.1312 295.577Z" fill="#5A8141"/>
<path d="M61.8978 293.588C61.8978 293.588 90.7168 260.899 112.513 275.877C112.513 275.877 71.1736 311.962 61.8978 293.588Z" fill="#729E53"/>
<path d="M63.0673 199.019C63.0673 199.019 43.5834 172.06 10.2747 176.016C10.2747 176.016 49.2965 151.46 63.0673 199.019Z" fill="#5A8141"/>
<path d="M60.2323 150.258L50.5254 462.783C50.5038 463.489 51.0697 464.076 51.7758 464.076H61.4827H71.1897C71.8957 464.076 72.4617 463.489 72.4401 462.783L62.7332 150.258C62.6847 148.641 60.2808 148.641 60.2269 150.258H60.2323Z" fill="#729E53"/>
<mask id="mask1_28_4189" style="mask-type:luminance" maskUnits="userSpaceOnUse" x="47" y="120" width="29" height="69">
<path d="M75.7048 154.494C75.8991 135.625 69.6888 120.264 61.8338 120.183C53.9787 120.102 47.4535 135.333 47.2592 154.201C47.0649 173.069 53.2751 188.43 61.1302 188.511C68.9852 188.592 75.5105 173.362 75.7048 154.494Z" fill="white"/>
</mask>
<g mask="url(#mask1_28_4189)">
<path d="M75.7047 154.494C75.899 135.625 69.6888 120.264 61.8338 120.183C53.9787 120.102 47.4534 135.333 47.2591 154.201C47.0648 173.069 53.2751 188.43 61.1301 188.511C68.9852 188.592 75.5104 173.362 75.7047 154.494Z" fill="#F6EE61"/>
<path d="M61.8977 114.233C61.8977 114.233 52.6003 145.003 61.0784 193.71" stroke="#CBA950" stroke-width="0.55" stroke-miterlimit="10"/>
<path d="M57.9093 114.19C57.9093 114.19 48.612 144.96 57.0901 193.667" stroke="#CBA950" stroke-width="0.55" stroke-miterlimit="10"/>
<path d="M53.9209 114.152C53.9209 114.152 44.6235 144.922 53.1016 193.63" stroke="#CBA950" stroke-width="0.55" stroke-miterlimit="10"/>
<path d="M60.2862 114.217C60.2862 114.217 68.9422 145.176 59.467 193.694" stroke="#CBA950" stroke-width="0.55" stroke-miterlimit="10"/>
<path d="M64.2747 114.26C64.2747 114.26 72.9306 145.219 63.4554 193.737" stroke="#CBA950" stroke-width="0.55" stroke-miterlimit="10"/>
<path d="M68.2631 114.298C68.2631 114.298 76.919 145.256 67.4438 193.775" stroke="#CBA950" stroke-width="0.55" stroke-miterlimit="10"/>
<path d="M40.8992 125.67C46.1488 124.263 53.1717 122.932 61.5042 122.856C71.3567 122.765 79.5222 124.457 85.2784 126.128" stroke="#CBA950" stroke-width="0.55" stroke-miterlimit="10"/>
<path d="M40.8562 129.777C46.1058 128.37 53.1287 127.039 61.4612 126.964C71.3137 126.872 79.4792 128.565 85.2354 130.235" stroke="#CBA950" stroke-width="0.55" stroke-miterlimit="10"/>
<path d="M40.813 133.879C46.0626 132.472 53.0855 131.141 61.418 131.065C71.2705 130.973 79.4359 132.666 85.1922 134.337" stroke="#CBA950" stroke-width="0.55" stroke-miterlimit="10"/>
<path d="M40.7753 137.985C46.0249 136.579 53.0478 135.247 61.3803 135.172C71.2328 135.08 79.3983 136.773 85.1545 138.444" stroke="#CBA950" stroke-width="0.55" stroke-miterlimit="10"/>
<path d="M40.7321 142.092C45.9818 140.686 53.0046 139.354 61.3372 139.279C71.1896 139.187 79.3551 140.88 85.1114 142.551" stroke="#CBA950" stroke-width="0.55" stroke-miterlimit="10"/>
<path d="M40.689 146.2C45.9386 144.793 52.9615 143.462 61.294 143.386C71.1465 143.295 79.312 144.987 85.0682 146.658" stroke="#CBA950" stroke-width="0.55" stroke-miterlimit="10"/>
<path d="M40.646 150.302C45.8956 148.895 52.9184 147.564 61.251 147.488C71.1035 147.397 79.2689 149.089 85.0252 150.76" stroke="#CBA950" stroke-width="0.55" stroke-miterlimit="10"/>
<path d="M40.6028 154.408C45.8525 153.001 52.8753 151.67 61.2079 151.595C71.0603 151.503 79.2258 153.195 84.9821 154.866" stroke="#CBA950" stroke-width="0.55" stroke-miterlimit="10"/>
<path d="M40.5597 158.515C45.8093 157.109 52.8322 155.777 61.1647 155.702C71.0172 155.61 79.1827 157.303 84.9389 158.973" stroke="#CBA950" stroke-width="0.55" stroke-miterlimit="10"/>
<path d="M40.5165 162.622C45.7662 161.215 52.789 159.884 61.1216 159.809C70.974 159.717 79.1395 161.409 84.8957 163.08" stroke="#CBA950" stroke-width="0.55" stroke-miterlimit="10"/>
<path d="M40.4789 166.724C45.7285 165.317 52.7513 163.986 61.0839 163.91C70.9363 163.819 79.1018 165.511 84.8581 167.182" stroke="#CBA950" stroke-width="0.55" stroke-miterlimit="10"/>
<path d="M40.4357 170.831C45.6853 169.424 52.7082 168.093 61.0407 168.017C70.8932 167.926 79.0587 169.618 84.8149 171.289" stroke="#CBA950" stroke-width="0.55" stroke-miterlimit="10"/>
<path d="M40.3926 174.938C45.6422 173.531 52.6651 172.2 60.9976 172.124C70.8501 172.033 79.0156 173.725 84.7718 175.396" stroke="#CBA950" stroke-width="0.55" stroke-miterlimit="10"/>
<path d="M40.3495 179.045C45.5992 177.638 52.622 176.307 60.9546 176.231C70.807 176.14 78.9725 177.832 84.7288 179.503" stroke="#CBA950" stroke-width="0.55" stroke-miterlimit="10"/>
<path d="M40.3064 183.152C45.556 181.745 52.5788 180.414 60.9114 180.338C70.7638 180.247 78.9293 181.939 84.6856 183.61" stroke="#CBA950" stroke-width="0.55" stroke-miterlimit="10"/>
<path d="M40.2633 187.253C45.5129 185.846 52.5358 184.515 60.8683 184.44C70.7208 184.348 78.8863 186.04 84.6425 187.711" stroke="#CBA950" stroke-width="0.55" stroke-miterlimit="10"/>
</g>
<path d="M64.0806 186.079C64.0806 186.079 74.9571 148.868 39.4817 145.478C39.4817 145.478 50.5577 200.318 64.0806 186.079Z" fill="#5A8141"/>
<path d="M58.8364 188.04C58.8364 188.04 58.8633 144.459 85.1222 141.301C85.1222 141.301 77.9376 195.705 58.8364 188.04Z" fill="#729E53"/>
<path d="M58.4645 199.019C58.4645 199.019 77.9484 172.06 111.257 176.016C111.257 176.016 72.2353 151.46 58.4645 199.019Z" fill="#729E53"/>
<path d="M65.2556 298.8C65.2556 298.8 98.8606 277.569 116.437 286.878C116.437 286.878 78.1802 291.011 65.2556 318.154V298.8Z" fill="#729E53"/>
<path d="M53.1071 379.689C53.1071 379.689 50.175 299.673 31.3971 293.987C13.4547 288.559 15.1093 315.702 15.1093 315.702C15.1093 315.702 10.8245 301.128 16.0471 291.362C18.6773 286.441 24.6761 281.709 32.944 282.744C55.9367 285.616 65.7676 339.352 65.7676 339.352L53.1017 379.689H53.1071Z" fill="#729E53"/>
<path d="M54.0072 471.32H121.115C121.115 471.32 124.554 457.485 111.823 455.076C99.087 452.666 94.9585 463.198 94.9585 463.198C94.9585 463.198 97.3677 441.31 80.8481 441.31C64.3285 441.31 64.3285 464.712 64.3285 464.712C64.3285 464.712 54.6917 458.654 54.0018 471.32H54.0072Z" fill="#648D48"/>
<path d="M109.974 372.461C109.974 372.461 76.1373 358.146 60.092 372.461C60.092 372.461 93.5786 372.72 105.684 383.866L109.98 372.461H109.974Z" fill="#5A8141"/>
<mask id="mask2_28_4189" style="mask-type:luminance" maskUnits="userSpaceOnUse" x="77" y="321" width="57" height="62">
<path d="M131.224 380.135C137.759 374.261 131.619 356.773 117.508 341.075C103.398 325.376 86.6621 317.412 80.1269 323.286C73.5916 329.16 79.7322 346.648 93.8422 362.346C107.952 378.045 124.689 386.009 131.224 380.135Z" fill="white"/>
</mask>
<g mask="url(#mask2_28_4189)">
<path d="M131.224 380.135C137.759 374.261 131.619 356.773 117.508 341.075C103.398 325.377 86.6621 317.412 80.1268 323.286C73.5916 329.161 79.7322 346.648 93.8422 362.347C107.952 378.045 124.689 386.009 131.224 380.135Z" fill="#F6EE61"/>
<path d="M75.6792 318.321C75.6792 318.321 106.234 337.288 135.123 384.454" stroke="#CBA950" stroke-width="0.61" stroke-miterlimit="10"/>
<path d="M78.9993 315.341C78.9993 315.341 109.554 334.307 138.443 381.473" stroke="#CBA950" stroke-width="0.61" stroke-miterlimit="10"/>
<path d="M82.3194 312.355C82.3194 312.355 112.874 331.321 141.763 378.487" stroke="#CBA950" stroke-width="0.61" stroke-miterlimit="10"/>
<path d="M77.0212 317.119C77.0212 317.119 92.6354 349.512 136.465 383.252" stroke="#CBA950" stroke-width="0.61" stroke-miterlimit="10"/>
<path d="M73.7012 320.1C73.7012 320.1 89.3153 352.493 133.145 386.232" stroke="#CBA950" stroke-width="0.61" stroke-miterlimit="10"/>
<path d="M70.381 323.086C70.381 323.086 85.9951 355.478 129.825 389.218" stroke="#CBA950" stroke-width="0.61" stroke-miterlimit="10"/>
<path d="M101.766 312.404C96.3166 315.104 89.4339 319.179 82.3841 325.275C74.0461 332.481 68.4408 339.94 64.8404 345.594" stroke="#CBA950" stroke-width="0.61" stroke-miterlimit="10"/>
<path d="M104.838 315.821C99.3888 318.521 92.5061 322.595 85.4563 328.691C77.1184 335.897 71.513 343.357 67.9127 349.011" stroke="#CBA950" stroke-width="0.61" stroke-miterlimit="10"/>
<path d="M107.905 319.238C102.456 321.938 95.5728 326.012 88.523 332.108C80.1851 339.314 74.5798 346.774 70.9794 352.428" stroke="#CBA950" stroke-width="0.61" stroke-miterlimit="10"/>
<path d="M110.977 322.655C105.528 325.355 98.645 329.43 91.5952 335.526C83.2573 342.732 77.6519 350.191 74.0516 355.845" stroke="#CBA950" stroke-width="0.61" stroke-miterlimit="10"/>
<path d="M114.049 326.067C108.6 328.767 101.717 332.842 94.6673 338.937C86.3293 346.143 80.724 353.603 77.1236 359.257" stroke="#CBA950" stroke-width="0.61" stroke-miterlimit="10"/>
<path d="M117.116 329.484C111.667 332.184 104.784 336.259 97.7341 342.354C89.3962 349.56 83.7908 357.02 80.1905 362.674" stroke="#CBA950" stroke-width="0.61" stroke-miterlimit="10"/>
<path d="M120.188 332.901C114.739 335.601 107.856 339.676 100.806 345.772C92.4684 352.978 86.863 360.437 83.2627 366.091" stroke="#CBA950" stroke-width="0.61" stroke-miterlimit="10"/>
<path d="M123.26 336.318C117.811 339.018 110.928 343.093 103.878 349.188C95.5405 356.394 89.9351 363.854 86.3348 369.508" stroke="#CBA950" stroke-width="0.61" stroke-miterlimit="10"/>
<path d="M126.332 339.735C120.883 342.435 114 346.51 106.951 352.606C98.6126 359.812 93.0073 367.271 89.407 372.925" stroke="#CBA950" stroke-width="0.61" stroke-miterlimit="10"/>
<path d="M129.399 343.146C123.95 345.847 117.067 349.921 110.017 356.017C101.679 363.223 96.074 370.682 92.4737 376.336" stroke="#CBA950" stroke-width="0.61" stroke-miterlimit="10"/>
<path d="M132.471 346.563C127.022 349.264 120.139 353.338 113.09 359.434C104.752 366.64 99.1462 374.1 95.5459 379.754" stroke="#CBA950" stroke-width="0.61" stroke-miterlimit="10"/>
<path d="M135.543 349.981C130.094 352.681 123.211 356.756 116.162 362.852C107.824 370.058 102.218 377.517 98.618 383.171" stroke="#CBA950" stroke-width="0.61" stroke-miterlimit="10"/>
<path d="M138.61 353.398C133.161 356.098 126.278 360.173 119.228 366.268C110.89 373.475 105.285 380.934 101.685 386.588" stroke="#CBA950" stroke-width="0.61" stroke-miterlimit="10"/>
<path d="M141.682 356.815C136.233 359.515 129.35 363.59 122.301 369.686C113.963 376.892 108.357 384.351 104.757 390.005" stroke="#CBA950" stroke-width="0.61" stroke-miterlimit="10"/>
<path d="M144.754 360.232C139.305 362.933 132.423 367.007 125.373 373.103C117.035 380.309 111.429 387.769 107.829 393.423" stroke="#CBA950" stroke-width="0.61" stroke-miterlimit="10"/>
<path d="M147.826 363.644C142.377 366.344 135.495 370.419 128.445 376.515C120.107 383.721 114.502 391.18 110.901 396.834" stroke="#CBA950" stroke-width="0.61" stroke-miterlimit="10"/>
</g>
<path d="M126.952 380.261C126.952 380.261 90.3125 357.052 117.59 327.985C117.59 327.985 148.829 382.217 126.952 380.261Z" fill="#5A8141"/>
<path d="M132.811 378.034C132.811 378.034 100.575 341.465 76.1859 358.222C76.1859 358.222 122.43 398.591 132.811 378.034Z" fill="#729E53"/>
<path d="M165.521 296.967C165.521 296.967 181.981 288.311 208.876 301.758C208.876 301.758 185.495 267.453 165.521 296.967Z" fill="#5A7029"/>
<mask id="mask3_28_4189" style="mask-type:luminance" maskUnits="userSpaceOnUse" x="132" y="243" width="54" height="64">
<path d="M171.497 285.239C184.623 268.708 189.684 250.878 182.803 245.414C175.921 239.95 159.702 248.921 146.577 265.452C133.451 281.982 128.39 299.812 135.271 305.276C142.153 310.74 158.372 301.769 171.497 285.239Z" fill="white"/>
</mask>
<g mask="url(#mask3_28_4189)">
<path d="M171.497 285.239C184.623 268.708 189.684 250.878 182.803 245.414C175.921 239.95 159.702 248.921 146.577 265.452C133.451 281.982 128.39 299.812 135.271 305.276C142.153 310.74 158.372 301.769 171.497 285.239Z" fill="#F6EE61"/>
<path d="M186.945 240.235C186.945 240.235 173.336 273.522 131.646 309.865" stroke="#CBA950" stroke-width="0.61" stroke-miterlimit="10"/>
<path d="M190.443 243.01C190.443 243.01 176.834 276.297 135.144 312.64" stroke="#CBA950" stroke-width="0.61" stroke-miterlimit="10"/>
<path d="M193.941 245.786C193.941 245.786 180.332 279.073 138.642 315.416" stroke="#CBA950" stroke-width="0.61" stroke-miterlimit="10"/>
<path d="M188.363 241.356C188.363 241.356 159.026 262.149 133.064 310.986" stroke="#CBA950" stroke-width="0.61" stroke-miterlimit="10"/>
<path d="M184.865 238.58C184.865 238.58 155.528 259.373 129.566 308.21" stroke="#CBA950" stroke-width="0.61" stroke-miterlimit="10"/>
<path d="M181.372 235.804C181.372 235.804 152.036 256.598 126.073 305.434" stroke="#CBA950" stroke-width="0.61" stroke-miterlimit="10"/>
<path d="M197.132 264.968C193.564 260.047 188.395 253.941 181.211 248.001C172.716 240.978 164.427 236.699 158.25 234.09" stroke="#CBA950" stroke-width="0.61" stroke-miterlimit="10"/>
<path d="M194.275 268.563C190.707 263.642 185.539 257.536 178.354 251.596C169.86 244.573 161.57 240.294 155.394 237.685" stroke="#CBA950" stroke-width="0.61" stroke-miterlimit="10"/>
<path d="M191.419 272.163C187.851 267.242 182.682 261.136 175.497 255.196C167.003 248.174 158.714 243.894 152.537 241.285" stroke="#CBA950" stroke-width="0.61" stroke-miterlimit="10"/>
<path d="M188.562 275.759C184.994 270.838 179.825 264.731 172.641 258.792C164.147 251.769 155.857 247.489 149.681 244.881" stroke="#CBA950" stroke-width="0.61" stroke-miterlimit="10"/>
<path d="M185.706 279.353C182.138 274.433 176.969 268.326 169.784 262.387C161.29 255.364 153.001 251.084 146.824 248.476" stroke="#CBA950" stroke-width="0.61" stroke-miterlimit="10"/>
<path d="M182.849 282.954C179.281 278.033 174.112 271.926 166.928 265.987C158.434 258.964 150.144 254.684 143.967 252.076" stroke="#CBA950" stroke-width="0.61" stroke-miterlimit="10"/>
<path d="M179.992 286.549C176.424 281.628 171.256 275.521 164.071 269.582C155.577 262.559 147.287 258.28 141.111 255.671" stroke="#CBA950" stroke-width="0.61" stroke-miterlimit="10"/>
<path d="M177.136 290.149C173.568 285.228 168.399 279.121 161.215 273.182C152.72 266.159 144.431 261.88 138.254 259.271" stroke="#CBA950" stroke-width="0.61" stroke-miterlimit="10"/>
<path d="M174.279 293.744C170.711 288.823 165.543 282.716 158.358 276.777C149.864 269.754 141.574 265.475 135.398 262.866" stroke="#CBA950" stroke-width="0.61" stroke-miterlimit="10"/>
<path d="M171.423 297.339C167.855 292.418 162.686 286.311 155.501 280.372C147.007 273.349 138.718 269.07 132.541 266.461" stroke="#CBA950" stroke-width="0.61" stroke-miterlimit="10"/>
<path d="M168.566 300.939C164.998 296.019 159.829 289.912 152.645 283.972C144.151 276.95 135.861 272.67 129.684 270.062" stroke="#CBA950" stroke-width="0.61" stroke-miterlimit="10"/>
<path d="M165.71 304.534C162.142 299.613 156.973 293.507 149.788 287.567C141.294 280.544 133.005 276.265 126.828 273.656" stroke="#CBA950" stroke-width="0.61" stroke-miterlimit="10"/>
<path d="M162.853 308.129C159.285 303.208 154.116 297.101 146.932 291.162C138.438 284.139 130.148 279.86 123.971 277.251" stroke="#CBA950" stroke-width="0.61" stroke-miterlimit="10"/>
<path d="M159.996 311.73C156.428 306.809 151.26 300.702 144.075 294.763C135.581 287.74 127.291 283.46 121.115 280.852" stroke="#CBA950" stroke-width="0.61" stroke-miterlimit="10"/>
<path d="M157.14 315.324C153.572 310.404 148.403 304.297 141.219 298.357C132.724 291.335 124.435 287.055 118.258 284.447" stroke="#CBA950" stroke-width="0.61" stroke-miterlimit="10"/>
<path d="M154.283 318.925C150.715 314.004 145.547 307.898 138.362 301.958C129.868 294.935 121.578 290.656 115.402 288.047" stroke="#CBA950" stroke-width="0.61" stroke-miterlimit="10"/>
</g>
<path d="M134.422 301.112C134.422 301.112 151.195 261.12 184.407 283.169C184.407 283.169 136.136 323.01 134.422 301.112Z" fill="#5A8141"/>
<path d="M137.597 306.518C137.597 306.518 168.286 268.633 147.692 247.387C147.692 247.387 115.596 299.716 137.597 306.518Z" fill="#729E53"/>
<path d="M131.501 224.146C131.501 224.146 153.297 193.991 190.562 198.41C190.562 198.41 146.91 170.944 131.501 224.146Z" fill="#5A8141"/>
<path d="M136.239 314.737C136.239 314.737 136.239 297.49 161.031 293.938C186.622 290.279 209.162 309.913 204.392 329.435C204.392 329.435 174.608 286.145 136.239 314.737Z" fill="#729E53"/>
<path d="M134.675 169.596L145.536 519.224C145.563 520.016 144.927 520.668 144.134 520.668H133.274H122.414C121.621 520.668 120.986 520.016 121.012 519.224L131.873 169.596C131.927 167.785 134.622 167.785 134.675 169.596Z" fill="#729E53"/>
<mask id="mask4_28_4189" style="mask-type:luminance" maskUnits="userSpaceOnUse" x="117" y="135" width="33" height="78">
<path d="M133.665 212.392C142.451 212.302 149.398 195.118 149.181 174.012C148.963 152.905 141.664 135.868 132.877 135.959C124.091 136.049 117.144 153.233 117.361 174.34C117.579 195.446 124.878 212.483 133.665 212.392Z" fill="white"/>
</mask>
<g mask="url(#mask4_28_4189)">
<path d="M133.665 212.392C142.451 212.302 149.398 195.118 149.181 174.012C148.963 152.905 141.664 135.868 132.877 135.959C124.091 136.049 117.144 153.233 117.361 174.34C117.579 195.446 124.878 212.483 133.665 212.392Z" fill="#F6EE61"/>
<path d="M132.811 129.292C132.811 129.292 143.208 163.716 133.727 218.207" stroke="#CBA950" stroke-width="0.61" stroke-miterlimit="10"/>
<path d="M137.273 129.249C137.273 129.249 147.67 163.673 138.19 218.164" stroke="#CBA950" stroke-width="0.61" stroke-miterlimit="10"/>
<path d="M141.736 129.2C141.736 129.2 152.133 163.625 142.652 218.115" stroke="#CBA950" stroke-width="0.61" stroke-miterlimit="10"/>
<path d="M134.616 129.276C134.616 129.276 124.931 163.905 135.533 218.191" stroke="#CBA950" stroke-width="0.61" stroke-miterlimit="10"/>
<path d="M130.148 129.319C130.148 129.319 120.463 163.948 131.064 218.234" stroke="#CBA950" stroke-width="0.61" stroke-miterlimit="10"/>
<path d="M125.685 129.367C125.685 129.367 116 163.997 126.602 218.282" stroke="#CBA950" stroke-width="0.61" stroke-miterlimit="10"/>
<path d="M156.299 142.087C150.424 140.513 142.566 139.026 133.247 138.94C122.225 138.837 113.09 140.734 106.654 142.599" stroke="#CBA950" stroke-width="0.61" stroke-miterlimit="10"/>
<path d="M156.348 146.679C150.473 145.106 142.615 143.618 133.296 143.532C122.274 143.429 113.138 145.327 106.703 147.191" stroke="#CBA950" stroke-width="0.61" stroke-miterlimit="10"/>
<path d="M156.396 151.271C150.521 149.698 142.663 148.21 133.344 148.124C122.322 148.021 113.187 149.919 106.751 151.783" stroke="#CBA950" stroke-width="0.61" stroke-miterlimit="10"/>
<path d="M156.445 155.869C150.57 154.295 142.712 152.807 133.393 152.721C122.371 152.619 113.235 154.516 106.8 156.381" stroke="#CBA950" stroke-width="0.61" stroke-miterlimit="10"/>
<path d="M156.493 160.461C150.618 158.887 142.76 157.4 133.441 157.313C122.419 157.211 113.284 159.108 106.848 160.973" stroke="#CBA950" stroke-width="0.61" stroke-miterlimit="10"/>
<path d="M156.536 165.053C150.661 163.479 142.803 161.992 133.484 161.905C122.462 161.803 113.327 163.7 106.891 165.565" stroke="#CBA950" stroke-width="0.61" stroke-miterlimit="10"/>
<path d="M156.585 169.645C150.71 168.071 142.852 166.584 133.533 166.497C122.511 166.395 113.375 168.292 106.94 170.157" stroke="#CBA950" stroke-width="0.61" stroke-miterlimit="10"/>
<path d="M156.633 174.237C150.759 172.663 142.9 171.176 133.581 171.09C122.559 170.987 113.424 172.884 106.988 174.749" stroke="#CBA950" stroke-width="0.61" stroke-miterlimit="10"/>
<path d="M156.682 178.835C150.807 177.261 142.949 175.773 133.63 175.687C122.608 175.585 113.472 177.482 107.037 179.347" stroke="#CBA950" stroke-width="0.61" stroke-miterlimit="10"/>
<path d="M156.73 183.427C150.856 181.853 142.997 180.366 133.678 180.279C122.656 180.177 113.521 182.074 107.085 183.939" stroke="#CBA950" stroke-width="0.61" stroke-miterlimit="10"/>
<path d="M156.773 188.019C150.899 186.445 143.04 184.957 133.722 184.871C122.699 184.769 113.564 186.666 107.128 188.531" stroke="#CBA950" stroke-width="0.61" stroke-miterlimit="10"/>
<path d="M156.822 192.611C150.947 191.037 143.089 189.549 133.77 189.463C122.748 189.361 113.612 191.258 107.177 193.123" stroke="#CBA950" stroke-width="0.61" stroke-miterlimit="10"/>
<path d="M156.871 197.203C150.996 195.629 143.137 194.141 133.819 194.055C122.797 193.953 113.661 195.85 107.226 197.715" stroke="#CBA950" stroke-width="0.61" stroke-miterlimit="10"/>
<path d="M156.919 201.795C151.044 200.221 143.186 198.734 133.867 198.647C122.845 198.545 113.709 200.442 107.274 202.307" stroke="#CBA950" stroke-width="0.61" stroke-miterlimit="10"/>
<path d="M156.968 206.392C151.093 204.818 143.234 203.331 133.916 203.245C122.894 203.142 113.758 205.039 107.323 206.904" stroke="#CBA950" stroke-width="0.61" stroke-miterlimit="10"/>
<path d="M157.011 210.984C151.136 209.411 143.278 207.923 133.959 207.837C122.937 207.734 113.801 209.632 107.366 211.496" stroke="#CBA950" stroke-width="0.61" stroke-miterlimit="10"/>
</g>
<path d="M130.369 209.664C130.369 209.664 118.204 168.039 157.884 164.239C157.884 164.239 145.493 225.591 130.369 209.664Z" fill="#5A8141"/>
<path d="M136.238 211.863C136.238 211.863 136.206 163.113 106.832 159.577C106.832 159.577 114.868 220.438 136.238 211.863Z" fill="#729E53"/>
<path d="M136.648 224.146C136.648 224.146 114.852 193.991 77.5872 198.41C77.5872 198.41 121.239 170.944 136.648 224.146Z" fill="#729E53"/>
<path d="M129.889 391.983C129.889 391.983 83.0794 377.236 62.2588 401.092C62.2588 401.092 83.0309 363.611 130.121 383.871L129.889 391.983Z" fill="#729E53"/>
<path d="M136.239 318.677C136.239 318.677 149.325 314.338 159.037 324.967C159.037 324.967 155.076 306.421 136.756 311.466L136.239 318.677Z" fill="#729E53"/>
<path d="M169.03 522.022C169.03 522.022 171.951 515.134 165.402 510.423C159.727 506.338 145.158 504.306 137.209 504.785C120.091 505.815 123.33 522.022 123.33 522.022H169.035H169.03Z" fill="#BCBCBC"/>
<path d="M29.1061 472.673C29.1061 472.673 26.1849 465.785 32.7335 461.074C38.4089 456.989 52.9774 454.957 60.9272 455.437C78.0451 456.466 74.8059 472.673 74.8059 472.673H29.1008H29.1061Z" fill="#BCBCBC"/>
<path d="M114.685 464.476L111.338 462.357L138.281 420.662C138.868 419.735 140.092 419.46 141.014 420.048C141.941 420.635 142.215 421.859 141.628 422.78L114.685 464.476Z" fill="#1E1C18"/>
<path d="M126.623 513.221L104.487 548.189C103.975 549.003 102.897 549.246 102.078 548.728C101.259 548.211 101.022 547.133 101.539 546.319L123.675 511.35C131.22 499.428 130.169 484.472 122.16 473.805C121.433 472.835 120.646 471.897 119.805 471.003C117.951 469.03 115.816 467.257 113.423 465.742L110.723 464.034C108.066 462.352 105.258 461.096 102.38 460.25C101.189 459.9 99.9922 459.619 98.7849 459.409C85.9842 457.167 72.4883 462.638 65.1205 474.28L42.9848 509.248C42.4727 510.062 41.3948 510.305 40.5756 509.787C39.7563 509.27 39.5192 508.192 40.0366 507.378L62.1723 472.409C70.5911 459.113 86.2321 453.098 100.79 456.24C101.976 456.499 103.151 456.811 104.32 457.189C107.171 458.116 109.947 459.404 112.593 461.08L115.294 462.789C117.676 464.298 119.821 466.033 121.729 467.963C122.586 468.825 123.394 469.731 124.149 470.663C133.732 482.515 135.22 499.638 126.628 513.21L126.623 513.221Z" fill="#1E1C18"/>
<path d="M124.144 470.668L82.6425 536.235C82.1251 537.048 81.0526 537.291 80.2333 536.774C79.4195 536.256 79.1769 535.184 79.6944 534.364L121.724 467.968C122.581 468.83 123.389 469.736 124.144 470.668Z" fill="#1E1C18"/>
<path d="M104.315 457.199L62.3987 523.418C61.8813 524.232 60.8033 524.474 59.9895 523.957C59.1756 523.439 58.9331 522.367 59.4505 521.548L100.79 456.245C101.976 456.504 103.151 456.817 104.32 457.194L104.315 457.199Z" fill="#1E1C18"/>
<path d="M279.504 191.748L272.626 214.1L261.992 248.718L220.329 304.065L208.294 295.571C208.294 295.571 238.746 229.153 241.252 219.532C242.314 215.463 244.152 208.117 245.909 200.959C248.329 191.145 250.625 181.723 250.625 181.723L279.504 191.754V191.748Z" fill="#FE8357"/>
<path d="M279.504 191.748L272.626 214.1C260.947 213.695 250.997 205.848 245.909 200.949C248.329 191.134 250.625 181.713 250.625 181.713L279.504 191.748Z" fill="#EB5949"/>
<path d="M282.737 147.229L276.588 128.079C276.588 128.079 263.033 134.143 257.998 143.634C250.571 157.626 241.29 194.654 241.29 194.654L280.113 208.02L282.743 147.235L282.737 147.229Z" fill="#A7C3C9"/>
<path d="M264.676 142.977C263.038 160.844 263.372 184.257 264.552 202.161" stroke="#657E8C" stroke-miterlimit="10" stroke-linecap="round"/>
<path d="M255.843 168.653C258.058 173.774 260.462 178.037 263.642 182.618" stroke="#657E8C" stroke-miterlimit="10" stroke-linecap="round"/>
<path d="M366.327 286.77C359.444 347.712 337.659 509.927 337.659 509.927L304.884 512.466L308.781 324.342L308.829 322.24C308.829 322.24 277.876 383.92 276.043 402.434C275.321 409.732 278.356 423.982 282.285 438.561C288.321 460.977 296.508 484.191 296.508 484.191L268.649 500.899C268.649 500.899 218.47 411.516 218.486 391.46C218.508 378.25 243.047 314.457 259.783 272.465C268.46 250.691 275.046 234.78 275.046 234.78L325.263 236.758L355.203 237.933C355.203 237.933 355.79 238.86 356.717 240.375C359.956 245.668 367.335 258.193 368.327 264.171C368.569 265.513 367.777 273.883 366.322 286.77H366.327Z" fill="#2A4954"/>
<path d="M366.327 286.77C342.009 289.19 311.384 287.616 308.916 286.635C306.824 285.794 306.054 281.504 305.434 278.302C304.135 282.372 302.879 285.072 301.106 285.525C298.158 286.269 284.22 284.511 259.809 272.471C268.487 250.696 275.073 234.786 275.073 234.786L325.29 236.764C335.703 238.499 346.213 239.706 356.744 240.369C359.983 245.662 367.362 258.188 368.354 264.165C368.575 265.507 367.782 273.878 366.327 286.77Z" fill="#24404F"/>
<path d="M308.926 321.351L308.829 322.24C308.829 322.24 277.876 383.92 276.043 402.434C275.321 409.732 278.356 423.982 282.285 438.561C276.798 431.366 270.848 422.662 268.778 416.334C264.574 403.566 263.793 394.058 272.556 367.476C281.304 340.894 292.143 304.432 292.143 304.432L308.932 321.345L308.926 321.351Z" fill="#24404F"/>
<path d="M361.358 270.536C361.358 270.536 358.108 305.122 354.588 335.833C350.934 367.718 335.832 502.91 335.832 502.91" stroke="#1E3242" stroke-miterlimit="10"/>
<path d="M305.644 267.054C305.644 267.054 300.049 294.968 300.621 312.684" stroke="#1E3242" stroke-miterlimit="10"/>
<path d="M313.357 268.165C312.403 275.495 311.546 292.866 310.317 294.979C309.767 295.922 306.027 297.63 301.472 298.703" stroke="#1E3242" stroke-miterlimit="10"/>
<path d="M370.536 278.459C370.499 248.848 373.873 134.17 365.6 129.023C335.805 110.46 279.881 117.984 267.641 134.305C260.661 143.607 266.504 241.183 266.299 245.069C266.067 249.505 262.337 260.587 259.675 267.992C267.091 269.706 296.153 278.982 300.944 278.524C303.116 278.313 307.336 264.521 307.336 264.521C307.336 264.521 310.662 279.429 312.311 280.006C315.157 281.019 366.866 280.114 370.531 278.464L370.536 278.459Z" fill="#A7C3C9"/>
<path d="M322.201 166.126C323.02 165.5 348.417 165.942 348.552 166.665C348.676 167.387 349.258 172.308 348.417 173.175C347.576 174.043 337.287 177.266 334.635 177.223C332.657 177.196 323.004 174.011 322.39 173.181C321.937 172.593 321.668 166.53 322.196 166.12L322.201 166.126Z" fill="#CADBDE"/>
<path d="M333.331 173.407C333.39 172.308 334.177 171.451 335.094 171.499C336.01 171.548 336.705 172.48 336.646 173.58C336.587 174.679 335.8 175.536 334.883 175.488C333.967 175.439 333.272 174.507 333.331 173.407Z" fill="#232035"/>
<path d="M267.064 166.368C267.808 165.77 290.677 166.109 290.795 166.805C290.914 167.5 291.41 172.221 290.65 173.062C289.89 173.903 280.614 177.024 278.221 176.997C276.448 176.975 267.759 173.951 267.199 173.159C266.811 172.588 266.584 166.767 267.064 166.373V166.368Z" fill="#CADBDE"/>
<path d="M277.094 173.456C277.148 172.4 277.914 171.575 278.803 171.623C279.692 171.672 280.366 172.567 280.312 173.623C280.258 174.679 279.493 175.504 278.604 175.455C277.714 175.407 277.041 174.512 277.094 173.456Z" fill="#232035"/>
<path d="M305.655 156.521C306.694 156.521 307.536 155.679 307.536 154.64C307.536 153.601 306.694 152.759 305.655 152.759C304.616 152.759 303.774 153.601 303.774 154.64C303.774 155.679 304.616 156.521 305.655 156.521Z" fill="#657E8C"/>
<path d="M307.735 184.063C308.774 184.063 309.616 183.22 309.616 182.182C309.616 181.143 308.774 180.301 307.735 180.301C306.696 180.301 305.854 181.143 305.854 182.182C305.854 183.22 306.696 184.063 307.735 184.063Z" fill="#657E8C"/>
<path d="M307.94 216.498C308.979 216.498 309.821 215.656 309.821 214.617C309.821 213.578 308.979 212.736 307.94 212.736C306.901 212.736 306.059 213.578 306.059 214.617C306.059 215.656 306.901 216.498 307.94 216.498Z" fill="#657E8C"/>
<path d="M306.366 246.659C307.405 246.659 308.247 245.817 308.247 244.778C308.247 243.739 307.405 242.897 306.366 242.897C305.327 242.897 304.485 243.739 304.485 244.778C304.485 245.817 305.327 246.659 306.366 246.659Z" fill="#657E8C"/>
<path d="M308.894 147.515C308.894 147.515 311.508 180.581 311.352 207.896C311.195 236.575 307.638 263.863 307.638 263.863" stroke="#657E8C" stroke-miterlimit="10" stroke-linecap="round"/>
<path d="M331.72 120.528C327.235 136.439 314.284 146.755 308.953 146.863C304.016 146.96 292.66 133.69 290.601 123.083C292.407 122.361 293.592 121.127 294.342 119.526C296.174 115.764 295.684 109.948 295.597 103.782C307.66 104.111 315.001 104.467 325.942 99.7131C325.829 104.408 325.92 108.364 326.836 111.883C327.645 115.036 329.132 117.85 331.714 120.534L331.72 120.528Z" fill="#FE8357"/>
<path d="M326.842 111.878C324.217 114.238 321.414 116.362 318.326 118.076C311.034 122.118 301.656 123.439 294.352 119.52C296.185 115.758 295.694 109.943 295.608 103.777C307.67 104.106 315.011 104.461 325.953 99.7075C325.829 104.402 325.926 108.358 326.842 111.878Z" fill="#EB5949"/>
<path d="M309.578 146.9C309.578 146.9 323.867 137.15 327.957 115.128C327.957 115.128 331.844 113.624 336.366 117.963C338.931 120.42 340.958 148.539 340.958 148.539C340.958 148.539 331.202 142.761 327.176 142.89C322.029 143.052 309.578 146.9 309.578 146.9Z" fill="#CADBDE"/>
<path d="M307.816 146.814C307.816 146.814 294.961 135.129 294.816 118.523C294.816 118.523 288.779 118.184 285.993 123.035C282.996 128.268 283.497 151.595 283.497 151.595C283.497 151.595 288.3 146.609 292.978 146.033C297.656 145.456 307.816 146.814 307.816 146.814Z" fill="#CADBDE"/>
<path d="M269.71 48.7314C272.47 35.4133 276.211 20.4137 284.451 8.91732C286.931 5.46788 290.45 1.76512 295.242 1.90526C298.54 2.00227 302.723 5.39782 305.973 5.91523C312.532 6.95545 313.583 -0.326099 320.078 0.940492C325.295 1.95377 328.378 6.49194 330.404 10.6959C336.295 22.9199 344.655 39.3317 343.545 52.0353C319.593 47.4864 294.751 46.527 269.705 48.726L269.71 48.7314Z" fill="#F0C0A1"/>
<path d="M288.143 72.4192C272.804 76.0249 255.977 72.6725 243.193 63.4614C239.307 60.6641 235.68 57.2039 233.944 52.7412C232.209 48.2785 232.78 42.6624 236.326 39.4447C239.183 36.8522 243.392 36.2432 247.214 36.7929C251.035 37.3427 254.619 38.9057 258.263 40.1669C275.515 46.1765 294.347 45.7399 312.473 43.5032C330.598 41.2664 348.546 37.2942 366.791 36.4264C370.871 36.2324 375.064 36.2162 378.923 37.5744C382.782 38.9327 386.28 41.9401 387.175 45.9232C388.63 52.3531 383.154 58.2172 377.629 61.8122C356.081 75.8632 328.637 75.8902 288.149 72.4192H288.143Z" fill="#CC8B6A"/>
<path d="M267.35 75.6367C268.762 71.422 274.27 69.4655 279.654 71.2657C285.039 73.0712 288.257 77.949 286.844 82.1637C285.432 86.3785 279.924 88.335 274.54 86.5348C269.155 84.7293 265.938 79.8515 267.35 75.6367Z" fill="#EB5949"/>
<path d="M273.979 70.9262C274.001 65.0514 272.351 58.8047 273.979 55.3337C276.264 50.4829 293.053 46.3382 306.646 47.0496C324.783 47.9928 337.955 42.4036 335.266 74.0684C333.493 95.0022 318.671 109.242 302.793 110.74C285.05 112.417 273.893 91.8438 273.979 70.9262Z" fill="#FE8357"/>
<path d="M274.761 76.1058C277.159 71.255 278.366 65.8059 277.962 59.7802C283.303 63.8872 289.938 66.2695 296.67 66.5228C298.346 66.5821 300.092 66.4958 301.58 65.7251C303.068 64.9544 304.221 63.3159 303.305 61.6451C306.226 62.5236 309.217 63.4075 312.273 63.2728C315.329 63.138 318.493 61.7798 319.803 59.0418C322.309 65.0298 327.122 70.0153 333.013 72.7318C330.739 66.9971 328.858 61.1007 327.37 55.1127C309.799 51.6201 291.453 52.1321 274.103 56.5895C273.979 63.165 274.432 69.7405 274.761 76.1058Z" fill="#EB5949"/>
<path d="M275.79 52.2295C276.367 61.5322 276.07 70.8026 274.885 79.8574C272.465 72.5758 271.942 65.4344 271.877 56.6868C273.101 56.1101 274.416 52.5421 275.79 52.2295Z" fill="#232035"/>
<path d="M276.081 56.4927C281.665 61.0363 288.866 63.5533 296.072 63.4725C297.538 63.4509 299.052 63.3162 300.303 62.5778C301.553 61.8394 302.475 60.3195 302.097 58.9127C305.374 60.9878 309.541 61.6022 313.27 60.562C317 59.5218 321.862 55.7112 323.586 52.2402C307.832 49.9819 290.014 52.2295 276.076 56.4927H276.081Z" fill="#232035"/>
<path d="M320.061 50.3374C320.951 60.9552 328.577 71.1957 339.395 81.1075C341.971 72.43 343.943 63.1057 343 51.7549C339.19 50.8656 323.231 50.6177 320.061 50.3374Z" fill="#232035"/>
<path d="M330.275 71.3466C335.616 69.417 341.168 71.2442 342.677 75.4266C344.186 79.609 341.087 84.5622 335.746 86.4918C330.404 88.4213 324.853 86.5942 323.344 82.4117C321.835 78.2293 324.934 73.2761 330.275 71.3466Z" fill="#FE8357"/>
<path d="M262.591 60.4163C296.465 51.5663 323.117 51.0219 358.679 56.9938C344.897 46.2304 326.076 44.662 308.614 45.4921C291.162 46.3221 275.213 49.5398 262.591 60.4163Z" fill="#CC8B6A"/>
<path d="M286.397 76.5637C287.626 76.5637 288.623 75.5672 288.623 74.3378C288.623 73.1084 287.626 72.1118 286.397 72.1118C285.168 72.1118 284.171 73.1084 284.171 74.3378C284.171 75.5672 285.168 76.5637 286.397 76.5637Z" fill="#232035"/>
<path d="M313.966 76.5637C315.195 76.5637 316.192 75.5672 316.192 74.3378C316.192 73.1084 315.195 72.1118 313.966 72.1118C312.736 72.1118 311.74 73.1084 311.74 74.3378C311.74 75.5672 312.736 76.5637 313.966 76.5637Z" fill="#232035"/>
<path d="M310.338 65.9785C314.187 65.0622 318.391 65.4072 321.986 66.9433" stroke="#232035" stroke-width="2" stroke-miterlimit="10" stroke-linecap="round"/>
<path d="M280.63 66.4797C283.368 64.3669 288.952 64.0382 292.164 65.3209" stroke="#232035" stroke-width="2" stroke-miterlimit="10" stroke-linecap="round"/>
<path d="M297.818 71.7834C297.338 74.958 297.489 78.2242 298.26 81.3503" stroke="#D65116" stroke-width="2" stroke-miterlimit="10" stroke-linecap="round"/>
<path d="M330.178 68.1129C330.178 68.1129 329.812 79.329 327.036 84.584C324.26 89.839 320.056 91.3805 320.056 91.3805C320.056 91.3805 317.744 86.1524 313.96 83.9857C310.333 81.9053 292.401 82.0077 289.227 84.6702C285.416 87.861 284.327 92.965 284.327 92.965C284.327 92.965 277.86 92.1674 275.483 72.1175L273.343 73.6212C273.343 73.6212 274.906 91.5583 279.186 102.807C283.045 112.961 291.027 116.578 302.744 116.578C318.412 116.578 330.976 110.385 335.034 88.1628C339.642 62.9387 336.894 66.7008 336.894 66.7008" fill="#232035"/>
<path d="M297.489 91.3587C302.087 92.0324 306.959 90.6526 310.479 87.6775" stroke="white" stroke-width="2" stroke-miterlimit="10" stroke-linecap="round"/>
<path d="M124.85 433.15L291.016 186.881C292.347 184.887 295.037 184.354 297.031 185.685L301.079 188.396C303.073 189.727 303.607 192.417 302.275 194.411L136.12 440.674C134.789 442.668 132.099 443.202 130.105 441.871L126.057 439.16C124.063 437.839 123.519 435.139 124.85 433.15Z" fill="#732419"/>
<path d="M211.873 291.383C209.087 292.009 201.584 296.87 200.705 299.926C200.048 302.184 201.266 314.015 199.768 323.533C199.671 324.18 199.902 324.891 200.366 325.355C201.406 326.395 203.212 325.306 204.02 324.072C207.184 319.259 208.736 315.055 209.2 309.822C216.384 305.278 217.667 300.826 218.497 294.046C216.201 293.518 214.061 292.375 211.873 291.383Z" fill="#FE8357"/>
<path d="M214.002 335.698C215.533 336.728 218.794 335.919 217.791 331.467C216.993 327.926 211.55 318.025 208.995 319.065C206.931 319.912 207.782 324.574 209.324 328.266C210.445 330.966 212.218 334.496 214.002 335.698Z" fill="#FE8357"/>
<path d="M216.104 329.284C217.619 330.357 220.896 329.613 219.99 325.139C219.268 321.593 214.05 311.562 211.474 312.554C209.394 313.352 210.143 318.03 211.598 321.755C212.649 324.476 214.347 328.039 216.099 329.284H216.104Z" fill="#FE8357"/>
<path d="M219.376 323.431C220.863 324.53 224.156 323.857 223.337 319.362C222.69 315.794 217.667 305.672 215.075 306.604C212.983 307.364 213.63 312.053 215.005 315.815C216.018 318.553 217.635 322.159 219.37 323.431H219.376Z" fill="#FE8357"/>
<path d="M224.243 319.712C225.773 320.741 229.045 319.922 228.021 315.47C227.212 311.94 221.753 302.039 219.198 303.1C217.134 303.947 218.001 308.609 219.543 312.301C220.669 314.99 222.453 318.521 224.237 319.717L224.243 319.712Z" fill="#FE8357"/>
<path d="M218.804 309.24C220.799 311.767 222.297 314.689 223.181 317.793" stroke="#CF303F" stroke-miterlimit="10" stroke-linecap="round"/>
<path d="M214.967 314.85C216.568 317.319 217.963 319.933 219.133 322.644" stroke="#CF303F" stroke-miterlimit="10" stroke-linecap="round"/>
<path d="M211.399 319.959C213.442 322.87 215.226 325.969 216.74 329.187" stroke="#CF303F" stroke-miterlimit="10" stroke-linecap="round"/>
<path d="M314.187 208.263C308.587 211.61 296.384 205.368 294.131 203.989C292.601 203.045 290.477 205.05 289.291 206.215C287.373 208.096 286.359 212.133 285.993 213.367C285.664 214.477 284.171 215.787 282.985 215.652C281.789 215.528 280.759 214.714 281.115 211.987C280.053 213.426 279.196 215.399 277.633 215.399C274.771 215.399 275.504 212.488 275.251 211.34C274.297 212.402 272.966 213.076 271.936 212.769C270.449 212.343 269.872 210.446 269.969 209.594C269.991 209.47 269.996 209.325 270.018 209.201C268.12 209.373 266.951 207.859 266.838 205.104C266.509 197.726 270.287 189.754 276.2 185.108C282.015 180.538 287.701 178.668 294.983 177.288C295.091 177.261 295.204 177.239 295.328 177.218C295.339 177.218 295.349 177.207 295.355 177.207L295.366 177.218C300.648 176.927 321.258 195.893 321.851 199.327C322.546 203.568 318.089 205.913 314.187 208.257V208.263Z" fill="#FE8357"/>
<path d="M281.374 210.817C283.929 204.684 289.119 199.709 295.344 197.402" stroke="#CF303F" stroke-miterlimit="10" stroke-linecap="round"/>
<path d="M275.154 210.068C276.776 202.172 282.145 195.133 289.34 191.49" stroke="#CF303F" stroke-miterlimit="10" stroke-linecap="round"/>
<path d="M270.761 207.513C270.885 199.412 275.294 191.506 282.112 187.14" stroke="#CF303F" stroke-miterlimit="10" stroke-linecap="round"/>
<path d="M376.066 238.839C362.123 243.754 311.422 207.551 311.422 207.551L310.883 187.83C310.883 187.83 352.729 207.406 354.825 206.5C355.079 206.392 355.23 205.875 355.305 205.045C355.682 200.852 353.985 188.73 352.95 181.961C352.513 179.126 352.195 177.229 352.195 177.229L377.813 178.732L379.387 178.818C379.387 178.818 381.71 190.87 382.75 204.199C383.946 219.387 383.483 236.219 376.056 238.844L376.066 238.839Z" fill="#FE8357"/>
<path d="M382.755 204.204C370.499 206.576 359.412 205.562 355.294 205.045C355.672 200.852 353.974 188.73 352.939 181.961L377.818 178.738L379.392 178.824C379.392 178.824 381.715 190.875 382.755 204.204Z" fill="#EB5949"/>
<path d="M351.263 124.209C351.937 120.787 374.87 130.257 377.047 143.494C379.042 155.642 387.396 197.548 387.396 197.548L350.072 203.557C350.072 203.557 348.083 140.282 351.268 124.209H351.263Z" fill="#A7C3C9"/>
<path d="M354.437 202.129C353.591 188.358 351.478 169.144 353.079 160.849C354.13 155.411 356.685 148.76 358.954 142.712" stroke="#657E8C" stroke-miterlimit="10" stroke-linecap="round"/>
<path d="M237.076 165.393C236.941 165.333 236.892 165.306 236.93 165.279C236.968 165.252 237.016 165.301 237.076 165.393Z" fill="#EB5949"/>
<path d="M460.82 518.346C460.82 518.346 457.964 469.019 424.375 469.019C396.973 469.019 392.861 493.682 392.861 493.682C392.861 493.682 395.68 437.688 354.497 429.286C320.929 422.435 307.913 466.281 307.913 466.281C307.913 466.281 288.731 456.003 277.768 464.912C260.327 479.082 264.067 499.164 264.067 499.164C264.067 499.164 235.297 488.201 235.297 518.346H460.815H460.82Z" fill="#648D48"/>
<path d="M425.533 500.872C425.533 500.872 420.58 424.731 451.76 421.217C475.033 418.592 477 446.786 477 446.786C477 446.786 466.215 429.49 454.056 432.363C443.627 434.826 432.195 452.893 425.539 500.872H425.533Z" fill="#648D48"/>
<path d="M425.533 500.872C425.533 500.872 432.696 447.115 432.416 411.71C432.168 380.395 409.143 350.741 409.143 350.741C409.143 350.741 423.895 388.108 422.256 423.185C420.618 458.261 425.533 500.872 425.533 500.872Z" fill="#648D48"/>
<path d="M425.533 500.872C425.533 500.872 416.354 457.102 386.199 460.956C386.199 460.956 432.093 441.865 425.533 500.872Z" fill="#648D48"/>
</svg>
