<svg width="20" height="24" viewBox="0 0 20 24" fill="none" xmlns="http://www.w3.org/2000/svg">
<path d="M19.2241 20.5047C18.8432 20.2219 18.6518 19.6956 18.7354 19.1646C19.0429 17.26 19.1758 15.3153 19.1303 13.3845C19.0931 11.8121 18.9277 10.2349 18.649 8.6868C19.1182 8.66533 19.4946 8.27807 19.4946 7.8012V6.27544C19.4946 5.78457 19.0969 5.38609 18.609 5.38609H18.3442V5.23398C18.3442 4.14215 17.4595 3.25373 16.3723 3.25373C16.2655 3.25373 16.1605 3.26213 16.0583 3.27893C15.695 2.31775 14.7666 1.65517 13.7176 1.65517C13.4815 1.65517 13.252 1.68783 13.0309 1.75222C12.3823 0.697702 11.2505 0.0556641 10.0017 0.0556641C8.7529 0.0556641 7.62096 0.697702 6.97249 1.75222C6.75227 1.68783 6.52275 1.65517 6.2858 1.65517C5.23669 1.65517 4.30933 2.31773 3.94509 3.27893C3.84287 3.26213 3.7388 3.25373 3.63101 3.25373C2.54382 3.25373 1.65919 4.14215 1.65919 5.23398V5.38609H1.39435C0.905576 5.38609 0.508789 5.7855 0.508789 6.27544V7.8012C0.508789 8.27527 0.881407 8.66162 1.34787 8.68587C1.07933 10.1659 0.912998 11.6833 0.863733 13.2101C0.804262 15.237 0.942717 17.2659 1.27353 19.2375C1.35252 19.7125 1.14437 20.2015 0.716936 20.5449C0.179846 20.977 -0.0803491 21.6452 0.0218688 22.3329C0.136164 23.0963 0.743888 23.7411 1.49655 23.8998C2.20834 24.0547 2.93314 23.7924 3.39496 23.2129C3.69139 22.8312 4.20245 22.6567 4.69589 22.7696C8.17396 23.5834 11.8787 23.5787 15.3644 22.7594C15.8262 22.6493 16.2964 22.8266 16.6226 23.2335C16.9906 23.6888 17.5323 23.9446 18.1159 23.9446C18.2097 23.9446 18.3045 23.938 18.4002 23.924C19.1603 23.8027 19.8005 23.1933 19.9576 22.4412C20.1137 21.6956 19.8321 20.9527 19.2244 20.5048L19.2241 20.5047ZM2.41898 5.23291C2.41898 4.56101 2.96352 4.01508 3.63163 4.01508C3.78402 4.01508 3.93084 4.04308 4.0563 4.0972C4.1613 4.14106 4.28117 4.1364 4.38153 4.08321C4.48282 4.03001 4.55437 3.93389 4.57667 3.82097C4.74021 3.00628 5.45849 2.41558 6.28551 2.41558C6.53363 2.41558 6.7687 2.46691 6.98708 2.56676C7.17385 2.65261 7.39407 2.57422 7.48608 2.38945C7.96463 1.41893 8.92824 0.816094 10.0014 0.816094C11.0747 0.816094 12.0383 1.41893 12.5168 2.38945C12.6079 2.57515 12.83 2.65355 13.0158 2.56676C13.2333 2.46597 13.4693 2.41558 13.7174 2.41558C14.5435 2.41558 15.2627 3.0063 15.4262 3.82097C15.4485 3.93295 15.521 4.02907 15.6214 4.08321C15.7217 4.1364 15.8416 4.14106 15.9466 4.0972C16.072 4.04401 16.2188 4.01508 16.3713 4.01508C17.0403 4.01508 17.5839 4.56194 17.5839 5.23291V5.38502H2.41894L2.41898 5.23291ZM1.26768 7.80011V6.27434C1.26768 6.20435 1.32436 6.14742 1.39405 6.14742H18.6079C18.6776 6.14742 18.7343 6.20435 18.7343 6.27434V7.80011C18.7343 7.8701 18.6776 7.92702 18.6079 7.92702H1.39501C1.32531 7.92702 1.26863 7.8701 1.26863 7.80011H1.26768ZM19.2137 22.2833C19.1199 22.7331 18.7361 23.097 18.2873 23.1689C17.8719 23.2286 17.4696 23.0718 17.2131 22.7527C16.7067 22.1228 15.9317 21.8409 15.1902 22.0154C11.8189 22.8087 8.235 22.8133 4.86564 22.0248C4.08603 21.8465 3.27295 22.1274 2.79904 22.7387C2.5212 23.0868 2.0854 23.2473 1.65517 23.153C1.20357 23.0578 0.841158 22.6734 0.773338 22.2189C0.712009 21.8027 0.868119 21.3995 1.19149 21.1392C1.83636 20.6213 2.14765 19.8626 2.02222 19.1104C1.69884 17.1862 1.5641 15.2087 1.62265 13.2323C1.67283 11.6991 1.84287 10.1733 2.11885 8.68946H17.8795C18.1647 10.2414 18.3339 11.824 18.371 13.4012C18.4156 15.2854 18.2855 17.1825 17.9854 19.0423C17.8572 19.8533 18.1666 20.668 18.7734 21.1178C19.1386 21.3874 19.3076 21.8335 19.2137 22.2833ZM13.0336 10.8358C12.8616 10.805 12.6897 10.8974 12.6173 11.0569C12.6126 11.0672 12.1053 12.1311 9.35662 13.2192C8.35026 13.6176 7.69051 14.228 7.39409 15.0333C7.04657 15.9777 7.30581 16.924 7.48608 17.3961C7.07816 17.6789 6.69065 17.9915 6.34684 18.3489C6.20096 18.5001 6.2056 18.7418 6.35614 18.8883C6.42954 18.9602 6.52526 18.9956 6.62004 18.9956C6.71947 18.9956 6.8189 18.9564 6.89323 18.879C7.23147 18.5272 7.61337 18.2192 8.02038 17.9486C8.56399 18.1287 9.07505 18.2239 9.54618 18.2239C10.2459 18.2239 10.8629 18.0251 11.3925 17.6285C13.6134 15.9618 13.3579 11.378 13.3458 11.1838C13.3346 11.0093 13.2055 10.8683 13.0345 10.8366L13.0336 10.8358ZM10.9381 17.0173C10.2579 17.5277 9.34917 17.5949 8.23415 17.2198C8.10219 16.909 7.81785 16.0831 8.10777 15.2974C8.32614 14.7039 8.84092 14.2438 9.63635 13.9284C11.1528 13.3274 12.058 12.7227 12.5913 12.2477C12.543 13.626 12.2605 16.0251 10.9392 17.0173L10.9381 17.0173Z" fill="black"/>
</svg>
