<svg width="21" height="22" viewBox="0 0 21 22" fill="none" xmlns="http://www.w3.org/2000/svg">
<path d="M17.5242 3.39516C16.5435 3.39516 15.6746 3.87427 15.132 4.6083C14.7359 4.25517 14.2273 4.05645 13.6824 4.05645H13.4791L15.1624 1.25093L14.5953 0.910694L12.8952 3.74432V0.75H12.2339V3.74432L10.5334 0.910363L9.96631 1.2506L11.65 4.05645H11.4466C10.2401 4.05645 9.25807 5.03814 9.25807 6.24499C9.25807 6.34385 9.26501 6.44272 9.27823 6.54092L9.85819 10.795C9.09902 10.5953 8.28299 10.6452 7.54102 10.9527C7.2494 10.8158 6.93363 10.7226 6.60001 10.6872C6.53785 9.65791 6.17414 8.65242 5.55484 7.82614L5.02581 8.22291C5.56079 8.93644 5.87821 9.80273 5.93872 10.6912C5.61469 10.7285 5.30752 10.8195 5.02349 10.9527C4.57977 10.7679 4.11488 10.6694 3.6371 10.6694C1.63173 10.6694 0 12.3011 0 14.3065V14.9145C0 15.1949 0.0327339 15.4753 0.0965484 15.7477L0.876871 19.0641C1.17974 20.351 2.31485 21.25 3.6371 21.25C4.08446 21.25 4.52686 21.1333 4.93223 20.9227C5.33794 21.1303 5.79588 21.25 6.28226 21.25C6.76864 21.25 7.22658 21.1303 7.63228 20.9227C8.03765 21.1333 8.48006 21.25 8.92742 21.25C9.81355 21.25 10.6273 20.8334 11.154 20.1668C11.3259 20.7947 11.8989 21.25 12.5645 21.25C13.2946 21.25 13.9195 20.7044 14.018 19.9813L14.5484 16.0933V18.2742C14.5484 19.9149 15.8832 21.25 17.5242 21.25C19.1652 21.25 20.5 19.9149 20.5 18.2742V6.37097C20.5 4.73031 19.1652 3.39516 17.5242 3.39516ZM3.6371 20.5887C2.62334 20.5887 1.75308 19.8996 1.52097 18.9127L0.740645 15.5963C0.687742 15.3734 0.66129 15.144 0.66129 14.9145V14.3065C0.66129 12.6658 1.9961 11.3306 3.6371 11.3306C3.86888 11.3306 4.09702 11.3597 4.32054 11.4133C3.70025 11.9589 3.30645 12.7561 3.30645 13.6452V18.2742C3.30645 19.1491 3.68835 19.9347 4.29177 20.4799C4.07851 20.549 3.85863 20.5887 3.6371 20.5887ZM3.96774 18.2742V13.6452C3.96774 12.3689 5.0063 11.3306 6.28226 11.3306C7.55822 11.3306 8.59677 12.3689 8.59677 13.6452V18.2742C8.59677 19.5505 7.55822 20.5887 6.28226 20.5887C5.0063 20.5887 3.96774 19.5505 3.96774 18.2742ZM8.92742 20.5887C8.70589 20.5887 8.48601 20.549 8.27274 20.4799C8.87617 19.9347 9.25807 19.1491 9.25807 18.2742V13.6452C9.25807 12.7564 8.86427 11.9595 8.24464 11.4136C8.815 11.2784 9.41215 11.3171 9.95672 11.5178L10.989 19.0869C10.699 19.9744 9.86877 20.5887 8.92742 20.5887ZM13.3627 19.8917C13.3085 20.2891 12.9656 20.5887 12.5645 20.5887C12.1634 20.5887 11.8206 20.2891 11.7663 19.8917L11.6361 18.9355H12.5645V18.2742H11.5458L10.5089 10.6694H11.9032V10.0081H10.4186L9.96763 6.70161H12.2339V6.04032H9.94019C10.0414 5.29571 10.6749 4.71774 11.4469 4.71774H13.6828C14.1086 4.71774 14.5041 4.89034 14.7917 5.19552C14.6357 5.55659 14.5484 5.95369 14.5484 6.37097V8.02419H12.8952V8.68548H14.5484V11.1971L14.4849 11.6613H12.8952V12.3226H14.395L13.854 16.2903H12.5645V16.9516H13.7638L13.3627 19.8917ZM15.2097 18.2742V8.68548V8.02419V6.37097C15.2097 5.16643 16.1352 4.17482 17.3123 4.06703C17.2977 4.08489 17.2845 4.10241 17.2696 4.12027C16.9241 4.53787 16.5323 5.01069 16.5323 5.92857C16.5323 6.84644 16.9241 7.31959 17.2693 7.73719C17.5837 8.11644 17.8548 8.44411 17.8548 9.12392C17.8548 9.80406 17.5837 10.1317 17.2693 10.5113C16.9241 10.9289 16.5323 11.4021 16.5323 12.3203C16.5323 13.2381 16.9241 13.7116 17.2693 14.1289C17.5837 14.5085 17.8548 14.8361 17.8548 15.516C17.8548 16.1964 17.5837 16.5241 17.2693 16.904C16.9241 17.3216 16.5323 17.7951 16.5323 18.7136C16.5323 19.6322 16.9241 20.1053 17.2693 20.5232C17.2845 20.5418 17.298 20.5596 17.3132 20.5778C16.1358 20.471 15.2097 19.4794 15.2097 18.2742ZM19.8387 18.2742C19.8387 19.3544 19.0938 20.2614 18.0913 20.5156C17.9904 20.3682 17.8849 20.2303 17.7788 20.102C17.4647 19.7221 17.1935 19.3941 17.1935 18.7136C17.1935 18.0332 17.4647 17.7052 17.7791 17.3252C18.1243 16.9076 18.5161 16.4345 18.5161 15.516C18.5161 14.5981 18.1243 14.1249 17.7791 13.7073C17.4647 13.3281 17.1935 13.0001 17.1935 12.3203C17.1935 11.6401 17.4647 11.3125 17.7791 10.9329C18.1243 10.5153 18.5161 10.0421 18.5161 9.12392C18.5161 8.20605 18.1243 7.7329 17.7791 7.31529C17.4647 6.93571 17.1935 6.60804 17.1935 5.92857C17.1935 5.24909 17.4647 4.92175 17.7791 4.54217C17.8853 4.41421 17.9904 4.27666 18.0909 4.12952C19.0934 4.38346 19.8387 5.29042 19.8387 6.37097V18.2742Z" fill="black"/>
<path d="M13.2257 13.6453H11.9031V14.3066H13.2257V13.6453Z" fill="black"/>
</svg>
