<svg width="70" height="84" viewBox="0 0 70 84" fill="none" xmlns="http://www.w3.org/2000/svg">
<g filter="url(#filter0_dd_9_1719)">
<path fill-rule="evenodd" clip-rule="evenodd" d="M35 67C48.8071 67 60 55.8071 60 42C60 28.1929 48.8071 17 35 17C21.1929 17 10 28.1929 10 42C10 55.8071 21.1929 67 35 67Z" fill="white"/>
<path d="M58.5 42C58.5 54.9787 47.9787 65.5 35 65.5C22.0213 65.5 11.5 54.9787 11.5 42C11.5 29.0213 22.0213 18.5 35 18.5C47.9787 18.5 58.5 29.0213 58.5 42Z" stroke="white" stroke-width="3"/>
</g>
<path d="M33.4 43.8571L37.552 41.5L33.4 39.1429V43.8571ZM42.648 37.705C42.752 38.0743 42.824 38.5693 42.872 39.1979C42.928 39.8264 42.952 40.3686 42.952 40.84L43 41.5C43 43.2207 42.872 44.4857 42.648 45.295C42.448 46.0021 41.984 46.4579 41.264 46.6543C40.888 46.7564 40.2 46.8271 39.144 46.8743C38.104 46.9293 37.152 46.9529 36.272 46.9529L35 47C31.648 47 29.56 46.8743 28.736 46.6543C28.016 46.4579 27.552 46.0021 27.352 45.295C27.248 44.9257 27.176 44.4307 27.128 43.8021C27.072 43.1736 27.048 42.6314 27.048 42.16L27 41.5C27 39.7793 27.128 38.5143 27.352 37.705C27.552 36.9979 28.016 36.5421 28.736 36.3457C29.112 36.2436 29.8 36.1729 30.856 36.1257C31.896 36.0707 32.848 36.0471 33.728 36.0471L35 36C38.352 36 40.44 36.1257 41.264 36.3457C41.984 36.5421 42.448 36.9979 42.648 37.705Z" fill="#0A142F"/>
<defs>
<filter id="filter0_dd_9_1719" x="0" y="0" width="70" height="84" filterUnits="userSpaceOnUse" color-interpolation-filters="sRGB">
<feFlood flood-opacity="0" result="BackgroundImageFix"/>
<feColorMatrix in="SourceAlpha" type="matrix" values="0 0 0 0 0 0 0 0 0 0 0 0 0 0 0 0 0 0 127 0" result="hardAlpha"/>
<feOffset dy="7"/>
<feGaussianBlur stdDeviation="5"/>
<feColorMatrix type="matrix" values="0 0 0 0 0.294118 0 0 0 0 0.294118 0 0 0 0 0.294118 0 0 0 0.1 0"/>
<feBlend mode="normal" in2="BackgroundImageFix" result="effect1_dropShadow_9_1719"/>
<feColorMatrix in="SourceAlpha" type="matrix" values="0 0 0 0 0 0 0 0 0 0 0 0 0 0 0 0 0 0 127 0" result="hardAlpha"/>
<feOffset dy="-7"/>
<feGaussianBlur stdDeviation="5"/>
<feColorMatrix type="matrix" values="0 0 0 0 0.294118 0 0 0 0 0.294118 0 0 0 0 0.294118 0 0 0 0.01 0"/>
<feBlend mode="normal" in2="effect1_dropShadow_9_1719" result="effect2_dropShadow_9_1719"/>
<feBlend mode="normal" in="SourceGraphic" in2="effect2_dropShadow_9_1719" result="shape"/>
</filter>
</defs>
</svg>
