<svg width="20" height="20" viewBox="0 0 20 20" fill="none" xmlns="http://www.w3.org/2000/svg">
<path d="M13.6275 20.0001H6.37258C5.12921 20.0001 4.11768 18.9885 4.11768 17.7452V7.54909C4.11768 6.30572 5.12921 5.29419 6.37258 5.29419H13.6275C14.8709 5.29419 15.8824 6.30572 15.8824 7.54909V17.7452C15.8824 18.9885 14.8709 20.0001 13.6275 20.0001ZM6.37258 5.88242C5.45356 5.88242 4.70591 6.63007 4.70591 7.54909V17.7452C4.70591 18.6642 5.45356 19.4118 6.37258 19.4118H13.6275C14.5465 19.4118 15.2941 18.6642 15.2941 17.7452V7.54909C15.2941 6.63007 14.5465 5.88242 13.6275 5.88242H6.37258Z" fill="black"/>
<path d="M13.8236 5.89229C13.6611 5.89229 13.5294 5.76064 13.5294 5.59817V4.11778H6.47062V5.59817C6.47062 5.76064 6.33897 5.89229 6.1765 5.89229C6.01403 5.89229 5.88239 5.76064 5.88239 5.59817V3.82366C5.88239 3.66119 6.01403 3.52954 6.1765 3.52954H13.8236C13.986 3.52954 14.1177 3.66119 14.1177 3.82366V5.59817C14.1177 5.76064 13.986 5.89229 13.8236 5.89229Z" fill="black"/>
<path d="M10.8824 4.11766C10.7199 4.11766 10.5883 3.98601 10.5883 3.82354V2.35296C10.5883 2.19048 10.7199 2.05884 10.8824 2.05884C11.0448 2.05884 11.1765 2.19048 11.1765 2.35296V3.82354C11.1765 3.98601 11.0448 4.11766 10.8824 4.11766Z" fill="black"/>
<path d="M9.11767 4.11766C8.95519 4.11766 8.82355 3.98601 8.82355 3.82354V2.35296C8.82355 2.19048 8.95519 2.05884 9.11767 2.05884C9.28014 2.05884 9.41178 2.19048 9.41178 2.35296V3.82354C9.41178 3.98601 9.28014 4.11766 9.11767 4.11766Z" fill="black"/>
<path d="M12.0589 2.64706H7.94121C7.77874 2.64706 7.64709 2.51541 7.64709 2.35294V0.294118C7.64709 0.131647 7.77874 0 7.94121 0H12.0589C12.2213 0 12.353 0.131647 12.353 0.294118V2.35294C12.353 2.51541 12.2213 2.64706 12.0589 2.64706ZM8.23533 2.05882H11.7647V0.588235H8.23533V2.05882Z" fill="black"/>
<path d="M16.1765 15.2942C15.9634 15.2942 15.7491 15.2763 15.5395 15.2411C15.3793 15.2141 15.2713 15.0624 15.2982 14.9022C15.3252 14.742 15.477 14.6342 15.637 14.6609C15.8145 14.6908 15.996 14.7059 16.1765 14.7059C17.9605 14.7059 19.4118 13.2545 19.4118 11.4706V5C19.4118 3.21224 17.9657 1.76471 16.1765 1.76471C14.807 1.76471 13.581 2.63145 13.1256 3.92142C13.0716 4.07459 12.9035 4.15502 12.7504 4.10087C12.5972 4.04679 12.5169 3.87879 12.571 3.72565C13.1091 2.20095 14.5581 1.17651 16.1765 1.17651C18.2893 1.17651 20 2.88561 20 5.00004V11.4706C20 13.5789 18.2848 15.2942 16.1765 15.2942Z" fill="black"/>
<path d="M15.5785 18.2352H4.42159C4.25912 18.2352 4.12747 18.1036 4.12747 17.9411C4.12747 17.7786 4.25912 17.647 4.42159 17.647H15.5785C15.7409 17.647 15.8726 17.7786 15.8726 17.9411C15.8726 18.1036 15.7409 18.2352 15.5785 18.2352Z" fill="black"/>
<path d="M15.5785 7.64707H4.42159C4.25912 7.64707 4.12747 7.51543 4.12747 7.35296C4.12747 7.19048 4.25912 7.05884 4.42159 7.05884H15.5785C15.7409 7.05884 15.8726 7.19048 15.8726 7.35296C15.8726 7.51543 15.7409 7.64707 15.5785 7.64707Z" fill="black"/>
<path d="M15.5883 16.4706H4.41179C4.24932 16.4706 4.11768 16.3389 4.11768 16.1764C4.11768 16.014 4.24932 15.8823 4.41179 15.8823H15.5883C15.7507 15.8823 15.8824 16.014 15.8824 16.1764C15.8824 16.3389 15.7507 16.4706 15.5883 16.4706Z" fill="black"/>
<path d="M15.5883 9.41172H4.41179C4.24932 9.41172 4.11768 9.28007 4.11768 9.1176C4.11768 8.95513 4.24932 8.82349 4.41179 8.82349H15.5883C15.7507 8.82349 15.8824 8.95513 15.8824 9.1176C15.8824 9.28007 15.7507 9.41172 15.5883 9.41172Z" fill="black"/>
<path d="M4.41178 17.9412H3.23531C3.07284 17.9412 2.94119 17.8095 2.94119 17.6471V15.2941C2.94119 15.1316 3.07284 15 3.23531 15H4.41178C4.57425 15 4.7059 15.1316 4.7059 15.2941V17.6471C4.7059 17.8095 4.57425 17.9412 4.41178 17.9412ZM3.52943 17.3529H4.11766V15.5882H3.52943V17.3529Z" fill="black"/>
<path d="M0.882382 7.64699C0.719912 7.64699 0.588265 7.51534 0.588265 7.35287V5.70997L0.086147 5.20789C-0.0287157 5.09299 -0.0287157 4.90679 0.086147 4.79193C0.201049 4.6771 0.387245 4.6771 0.502108 4.79193L1.09034 5.38016C1.14552 5.43538 1.1765 5.51016 1.1765 5.58816V7.35287C1.1765 7.51534 1.04485 7.64699 0.882382 7.64699Z" fill="black"/>
<path d="M3.23532 16.7647H2.05885C1.24794 16.7647 0.588257 16.105 0.588257 15.2941V11.1764C0.588257 11.014 0.719904 10.8823 0.882374 10.8823C1.04485 10.8823 1.17649 11.014 1.17649 11.1764V15.2941C1.17649 15.7806 1.57234 16.1764 2.05885 16.1764H3.23532C3.39779 16.1764 3.52943 16.3081 3.52943 16.4706C3.52943 16.633 3.39779 16.7647 3.23532 16.7647Z" fill="black"/>
<path d="M1.47062 11.4706H0.294148C0.131678 11.4706 3.05176e-05 11.339 3.05176e-05 11.1765V7.35296C3.05176e-05 7.19048 0.131678 7.05884 0.294148 7.05884H1.47062C1.63309 7.05884 1.76474 7.19048 1.76474 7.35296V11.1765C1.76474 11.339 1.63309 11.4706 1.47062 11.4706ZM0.588266 10.8824H1.1765V7.64707H0.588266V10.8824Z" fill="black"/>
<path d="M10 15.0001C8.70262 15.0001 7.64709 13.9445 7.64709 12.6471C7.64709 11.3497 8.70262 10.2942 10 10.2942C11.2974 10.2942 12.353 11.3497 12.353 12.6471C12.353 13.9445 11.2974 15.0001 10 15.0001ZM10 10.8824C9.02698 10.8824 8.23533 11.6741 8.23533 12.6471C8.23533 13.6202 9.02698 14.4118 10 14.4118C10.9731 14.4118 11.7647 13.6202 11.7647 12.6471C11.7647 11.6741 10.9731 10.8824 10 10.8824Z" fill="black"/>
<path d="M8.5443 14.3969C8.46904 14.3969 8.39375 14.3682 8.3363 14.3107C8.22144 14.1958 8.22144 14.0096 8.3363 13.8948L11.2478 10.9833C11.3627 10.8685 11.5488 10.8685 11.6637 10.9833C11.7786 11.0982 11.7786 11.2844 11.6637 11.3993L8.75226 14.3107C8.69485 14.3682 8.61955 14.3969 8.5443 14.3969Z" fill="black"/>
</svg>
