<svg width="529" height="528" viewBox="0 0 529 528" fill="none" xmlns="http://www.w3.org/2000/svg">
<path fill-rule="evenodd" clip-rule="evenodd" d="M494.777 135.978C489.394 126.315 483.361 116.926 476.681 107.876L404.304 40.7538C394.778 34.7728 384.962 29.4633 374.921 24.8228L494.777 135.978ZM332.679 9.54277C338.809 11.1825 344.893 13.0477 350.918 15.1389L506.239 159.184C508.777 165.035 511.095 170.961 513.191 176.95L332.679 9.54277ZM299.813 2.95776C304.773 3.62739 309.718 4.43842 314.642 5.3911L518.688 194.624C520.008 199.463 521.189 204.333 522.23 209.228L299.813 2.95776ZM271.586 0.674707C275.898 0.792243 280.208 1.01498 284.512 1.34307L524.991 224.364C525.642 228.632 526.188 232.913 526.629 237.203L271.586 0.674707ZM246.373 1.18629C250.245 0.923281 254.122 0.745241 258.001 0.6523L527.674 250.748C527.873 254.623 527.987 258.503 528.016 262.384L246.373 1.18629ZM223.381 3.75924C226.921 3.20572 230.471 2.72428 234.029 2.315L527.819 274.778C527.678 278.356 527.465 281.932 527.18 285.504L223.381 3.75924ZM202.159 7.9724C205.431 7.18234 208.716 6.45542 212.012 5.79172L526.008 296.994C525.594 300.33 525.117 303.66 524.575 306.983L202.159 7.9724ZM182.417 13.5591C185.463 12.5676 188.524 11.6327 191.598 10.7545L522.595 317.723C521.951 320.855 521.249 323.977 520.489 327.089L182.417 13.5591ZM163.963 20.3396C166.81 19.1707 169.674 18.0535 172.553 16.988L517.812 337.183C516.966 340.134 516.067 343.074 515.116 346.001L163.963 20.3396ZM146.659 28.187C149.328 26.858 152.015 25.5767 154.719 24.3432L511.819 355.519C510.792 358.309 509.717 361.085 508.592 363.846L146.659 28.187ZM130.407 37.0102C132.912 35.5334 135.437 34.1013 137.98 32.7139L504.731 372.841C503.539 375.481 502.301 378.106 501.017 380.715L130.407 37.0102ZM115.135 46.7418C117.487 45.1265 119.859 43.5533 122.251 42.0224L496.632 389.225C495.286 391.726 493.895 394.21 492.462 396.676L115.135 46.7418ZM100.789 57.3321C102.995 55.5851 105.223 53.8781 107.472 52.2112L487.584 404.729C486.091 407.097 484.557 409.447 482.98 411.778L100.789 57.3321ZM87.3295 68.7449C89.3956 66.871 91.4849 65.0354 93.5965 63.2382L477.632 419.395C475.999 421.636 474.325 423.857 472.612 426.058L87.3295 68.7449ZM74.729 80.9542C76.6593 78.9568 78.6139 76.9964 80.592 75.0729L466.809 433.253C465.04 435.37 463.232 437.466 461.385 439.541L74.729 80.9542ZM62.9699 93.9436C64.7533 91.8393 66.5752 89.7557 68.4356 87.6937L455.138 446.324C453.222 448.334 451.282 450.308 449.317 452.244L62.9699 93.9436ZM52.0569 107.718C53.7046 105.49 55.3922 103.282 57.1196 101.094L442.627 458.616C440.575 460.503 438.501 462.352 436.403 464.163L52.0569 107.718ZM42.0118 122.297C43.5198 119.943 45.0692 117.606 46.66 115.289L429.259 470.114C427.068 471.874 424.855 473.595 422.621 475.276L42.0118 122.297ZM32.8665 137.711C34.2289 135.225 35.6347 132.755 37.0838 130.303L415.008 480.792C412.672 482.422 410.315 484.009 407.939 485.555L32.8665 137.711ZM24.665 154C25.874 151.375 27.1286 148.765 28.4289 146.172L399.835 490.616C397.347 492.108 394.839 493.555 392.313 494.958L24.665 154ZM17.4673 171.22C18.5119 168.447 19.6051 165.687 20.747 162.943L383.69 499.538C381.039 500.883 378.37 502.181 375.683 503.431L17.4673 171.22ZM11.3544 189.445C12.2202 186.512 13.1382 183.59 14.1086 180.681L366.501 507.492C363.674 508.678 360.829 509.813 357.969 510.897L11.3544 189.445ZM6.43718 208.78C7.10408 205.669 7.82792 202.567 8.60876 199.476L348.174 514.39C345.15 515.401 342.111 516.356 339.059 517.255L6.43718 208.78ZM2.87043 229.368C3.31033 226.054 3.81331 222.747 4.37945 219.448L328.576 520.11C325.329 520.922 322.069 521.673 318.798 522.36L2.87043 229.368ZM0.877052 251.414C1.04897 247.864 1.29232 244.316 1.60721 240.773L307.52 524.478C304.011 525.059 300.491 525.568 296.964 526.007L0.877052 251.414ZM0.794348 275.233C0.635156 271.392 0.559413 267.548 0.567235 263.703L284.733 527.24C280.9 527.537 277.061 527.751 273.219 527.881L0.794348 275.233ZM3.17165 301.332C2.57585 297.113 2.08213 292.881 1.69059 288.64L259.782 527.996C255.524 527.924 251.267 527.75 247.014 527.473L3.17165 301.332ZM9.01482 330.647C7.78127 325.881 6.68247 321.088 5.71862 316.271L231.927 526.057C227.051 525.459 222.188 524.723 217.344 523.852L9.01482 330.647ZM20.5955 365.281C18.2361 359.577 16.0844 353.805 14.1406 347.976L199.678 520.044C193.719 518.544 187.802 516.833 181.936 514.909L20.5955 365.281ZM46.6406 413.331C40.9184 404.99 35.7258 396.386 31.0649 387.567L158.926 506.146C149.781 502.162 140.811 497.631 132.064 492.552L46.6406 413.331Z" fill="url(#paint0_linear_9_1315)"/>
<defs>
<linearGradient id="paint0_linear_9_1315" x1="81.3473" y1="79.8856" x2="454.346" y2="431.215" gradientUnits="userSpaceOnUse">
<stop stop-color="#116D62" stop-opacity="0.37"/>
<stop offset="0.62841" stop-color="#FF794D" stop-opacity="0.04"/>
<stop offset="1" stop-color="#2F973F" stop-opacity="0"/>
</linearGradient>
</defs>
</svg>
