<svg width="428" height="520" viewBox="0 0 428 520" fill="none" xmlns="http://www.w3.org/2000/svg">
<path d="M281.079 289.506C281.079 289.506 273.18 246.709 284.371 226.628C295.562 206.547 313.671 196.999 317.95 197.657C322.228 198.314 340.008 203.255 352.185 231.564C364.367 259.872 366.339 301.026 351.528 336.576C336.716 372.131 317.621 390.564 310.379 396.49C303.138 402.417 290.627 403.075 290.627 403.075C290.627 403.075 293.59 382.336 285.358 369.825C277.13 357.314 266.591 341.188 266.591 341.188C266.591 341.188 278.773 318.143 281.403 306.952C284.038 295.761 281.074 289.506 281.074 289.506H281.079Z" fill="#A7C3C9"/>
<path d="M313.384 372.306C303.559 366.2 292.317 363.18 280.925 361.742C268.882 360.221 256.612 360.314 244.502 360.786C218.679 361.798 192.979 365.665 168.065 372.532C161.702 374.283 154.599 375.768 149.037 379.496C146.639 381.104 144.528 383.179 143.167 385.752C142.535 386.938 141.934 388.309 141.76 389.65C141.611 390.785 141.847 392.079 142.145 393.214C141.328 399.038 140.501 404.842 139.957 410.707C139.346 417.322 138.873 423.947 138.611 430.582C138.088 443.745 138.149 456.945 138.858 470.103C139.217 476.733 139.726 483.348 140.388 489.953C140.717 493.234 141.072 496.516 141.488 499.788C141.606 500.728 141.739 501.688 141.929 502.628H324.96C325.088 469.784 322.839 436.941 318.448 404.395L313.379 372.301L313.384 372.306Z" fill="#2A4954"/>
<path d="M240.388 402.217C251.312 417.876 265.317 431.784 283.319 438.933C285.774 439.909 288.29 440.725 290.848 441.378C293.472 442.051 296.168 442.754 298.885 442.487C300.606 442.318 300.945 440.104 299.291 439.493C297.124 438.692 294.854 438.414 292.609 437.87C290.457 437.346 288.336 436.704 286.251 435.965C281.886 434.429 277.7 432.447 273.709 430.11C265.78 425.462 258.692 419.556 252.35 412.925C248.703 409.114 245.221 405.144 241.903 401.046C241.22 400.199 239.762 401.318 240.388 402.217Z" fill="#24404F"/>
<path d="M140.845 430.87C144.173 429.457 147.111 426.658 149.823 424.332C152.632 421.918 155.339 419.386 157.938 416.746C160.531 414.106 163.022 411.369 165.364 408.503C166.535 407.07 167.675 405.617 168.79 404.138C169.76 402.854 171.291 401.328 171.193 399.613C171.157 398.997 170.592 398.478 169.955 398.668C168.338 399.156 167.454 400.923 166.504 402.207C165.451 403.629 164.373 405.021 163.263 406.397C160.932 409.273 158.513 412.083 155.965 414.774C153.485 417.404 150.891 419.93 148.205 422.344C145.514 424.763 142.273 426.915 139.957 429.704C139.397 430.377 140.08 431.198 140.856 430.87H140.845Z" fill="#24404F"/>
<g style="mix-blend-mode:multiply">
<path d="M162.036 452.671C178.681 464.176 198.783 470.38 218.956 471.032C221.837 471.124 224.724 471.104 227.6 470.97C230.312 470.842 233.347 470.76 235.925 469.846C236.808 469.532 236.624 468.341 235.709 468.253C233.306 468.017 230.769 468.372 228.36 468.5C225.905 468.633 223.445 468.68 220.985 468.649C216.008 468.582 211.032 468.182 206.112 467.427C196.323 465.932 186.647 463.272 177.551 459.343C172.42 457.124 167.423 454.52 162.642 451.634C161.969 451.228 161.404 452.24 162.036 452.671Z" fill="#A4BCCB"/>
</g>
<path d="M263.469 399.125C263.469 399.125 263.756 408.878 267.87 411.184C271.984 413.49 277.13 404.395 277.13 404.395C277.13 404.395 277.787 395.176 277.13 394.847C276.473 394.518 263.469 399.125 263.469 399.125Z" fill="#C0D1DB"/>
<path d="M219.11 205.396C219.11 205.396 203.061 193.296 203.307 184.165C203.554 175.028 203.554 172.065 209.727 168.855C215.901 165.645 248.986 167.622 252.935 170.088C256.884 172.558 282.81 179.224 285.527 183.913C288.244 188.602 250.47 214.528 242.812 215.021C235.16 215.514 219.11 205.391 219.11 205.391V205.396Z" fill="#C9D7E0"/>
<path d="M218.535 167.705C217.878 177.581 216.229 186.137 215.551 194.843C215.367 197.179 214.067 199.347 214.134 201.689C214.18 203.245 214.612 204.765 215.043 206.26C217.554 214.97 219.814 233.305 222.572 241.943C223.291 244.198 224.832 237.177 227.179 237.485C228.406 237.645 229.608 237.08 230.651 236.422C236.891 232.504 240.096 225.267 245.036 219.792C247.984 216.526 251.559 213.897 255.005 211.159C260.757 206.598 266.237 201.689 271.398 196.471C273.273 194.575 275.143 192.588 276.211 190.148C277.068 188.187 277.366 186.029 277.597 183.903C278.106 179.199 278.322 174.464 278.255 169.728C271.861 168.845 265.384 169.888 258.97 170.571C245.981 171.962 232.839 171.896 219.866 170.37" fill="#FE8357"/>
<path d="M222.813 237.824C222.813 237.824 230.712 221.364 234.004 214.451C237.296 207.538 238.283 205.232 238.283 205.232C238.283 205.232 244.045 202.598 248.98 198.977C253.916 195.356 254.743 196.999 254.743 196.999C254.743 196.999 273.838 188.438 277.13 185.48C280.422 182.516 284.043 182.188 284.043 182.188C284.043 182.188 300.832 187.786 303.467 189.101C306.101 190.415 289.312 209.51 286.02 215.766C282.728 222.021 272.852 281.273 272.852 281.273C272.852 281.273 216.558 282.588 200.431 279.959C184.3 277.324 130.641 277.981 128.668 274.032C126.691 270.082 128.011 227.614 146.115 202.926C160.583 183.194 177.716 177.247 183.642 174.617C189.569 171.983 205.367 170.339 208.002 170.339C206.024 175.609 202.856 184.576 213.06 193.795C217.22 197.554 221.827 200.954 221.827 200.954L222.813 237.824Z" fill="#A7C3C9"/>
<path d="M238.246 205.396C238.246 205.396 251.579 199.593 253.428 200.209C256.391 201.442 261.573 216.259 261.573 216.259C261.573 216.259 274.413 209.839 283.55 201.2C292.686 192.557 297.622 184.411 297.622 184.411C297.622 184.411 281.706 169.482 278.249 169.728C274.793 169.975 276.39 181.7 267.5 188.366C258.61 195.032 253.428 195.032 251.697 196.511C249.966 197.991 238.241 205.402 238.241 205.402L238.246 205.396Z" fill="#CADBDE"/>
<path d="M203.395 169.348C203.395 169.348 193.847 170.334 188.912 172.311L183.976 174.289C183.976 174.289 165.21 211.159 158.631 231.569C152.047 251.978 146.12 282.593 146.12 282.593C146.12 282.593 175.748 311.893 195.167 314.522C214.591 317.157 283.062 296.09 283.062 296.09C283.062 296.09 276.149 253.293 287.668 230.911C299.188 208.524 319.932 197.333 319.932 197.333L299.851 186.471C299.851 186.471 287.833 199.146 277.464 214.451C269.036 226.895 262.652 242.759 262.652 242.759L181.341 222.35C181.341 222.35 183.319 213.131 191.875 191.406C195.891 181.212 203.395 169.348 203.395 169.348Z" fill="#2A4954"/>
<path d="M221.827 200.954C221.827 200.954 210.061 193.219 208.084 195.192C206.107 197.169 203.066 207.374 203.066 207.374C203.066 207.374 196.646 196.018 197.632 184.658C198.618 173.303 204.052 163.673 206.769 160.956C209.486 158.239 215.413 163.18 215.413 163.18C215.413 163.18 215.659 166.636 211.71 171.325C207.76 176.014 206.276 178.978 206.774 183.179C207.267 187.375 210.76 191.18 212.947 193.055C215.253 195.032 221.838 200.954 221.838 200.954H221.827Z" fill="#CADBDE"/>
<path d="M281.649 284.098L141.95 254.896L20.1945 286.281L220.805 316.228L277.756 295.782L281.649 284.098Z" fill="#A3611F"/>
<g style="mix-blend-mode:multiply">
<path d="M281.649 284.098L141.95 254.896L20.1945 286.281L220.805 316.228L277.756 295.782L281.649 284.098Z" fill="#D7BB9F"/>
</g>
<path d="M10.4877 289.342L129.654 251.321L155.657 287.2L31.8836 314.523L10.4877 289.342Z" fill="#A3611F"/>
<g style="mix-blend-mode:multiply">
<path d="M10.4877 289.342L129.654 251.321L155.657 287.2L31.8836 314.523L10.4877 289.342Z" fill="#D7BB9F"/>
</g>
<path d="M10.7342 290.569C11.9822 290.523 13.8927 291.232 15.2486 291.586C18.6896 292.495 22.1152 293.481 25.5356 294.467C36.2233 297.559 46.8801 300.779 57.5267 304.015C70.1814 307.862 82.831 311.724 95.4857 315.591C106.425 318.935 117.354 322.293 128.273 325.704C133.758 327.414 139.325 328.949 144.785 330.742C145.036 330.824 144.949 330.783 145.01 330.814C145.652 331.183 146.228 330.192 145.591 329.822C145.437 329.735 144.831 329.494 144.389 329.324C143.495 328.98 142.597 328.652 141.703 328.318C138.509 327.142 135.232 326.181 131.986 325.159C121.519 321.867 111.027 318.657 100.534 315.452C87.8487 311.575 75.1529 307.733 62.4314 303.979C51.2507 300.677 40.0598 297.4 28.838 294.231C25.0426 293.158 21.2421 292.095 17.4313 291.093C15.4386 290.569 13.4048 289.932 11.3607 289.65C11.1604 289.624 10.955 289.578 10.7496 289.588C10.123 289.619 10.1179 290.59 10.7496 290.569H10.7342Z" fill="#B78450"/>
<g opacity="0.5">
<path d="M145.74 331.081C146.274 341.28 147.116 351.47 147.841 361.659C148.2 366.759 148.488 371.864 148.729 376.974C148.852 379.532 148.945 382.085 149.135 384.637C149.325 387.21 149.653 389.716 149.679 392.3C149.684 392.967 150.737 392.967 150.711 392.3C150.614 389.727 150.799 387.205 150.824 384.637C150.85 382.079 150.753 379.532 150.665 376.974C150.485 371.869 150.26 366.764 150.023 361.659C149.551 351.46 148.821 341.203 147.466 331.081C147.322 330.012 145.673 329.935 145.73 331.081H145.74Z" fill="#3A2C1E"/>
</g>
<path d="M356.792 274.042C349.206 270.544 339.13 266.051 330.789 265.311C319.598 264.325 301.063 268.963 294.741 272.881C290.416 275.567 283.971 277.976 281.572 282.593C282.24 285.32 283.129 299.639 281.408 306.952C278.773 318.143 266.596 341.188 266.596 341.188C266.596 341.188 277.13 357.319 285.363 369.825C293.59 382.336 290.632 403.075 290.632 403.075C290.632 403.075 303.143 402.417 310.384 396.49C317.626 390.564 336.721 372.131 351.533 336.576C359.575 317.275 362.662 296.326 361.861 276.677C360.212 275.711 358.517 274.828 356.797 274.032L356.792 274.042Z" fill="#A7C3C9"/>
<path d="M192.409 72.928C197.499 52.2512 204.227 28.991 217.796 11.4829C221.874 6.22383 227.595 0.636049 235.088 1.13936C240.244 1.48346 246.592 7.0353 251.646 8.04192C261.846 10.0552 263.915 -1.27962 274.007 1.07773C282.112 2.96772 286.678 10.2503 289.6 16.9475C298.11 36.4225 310.236 62.5896 307.76 82.3985C270.546 73.8833 231.734 70.9456 192.404 72.9331L192.409 72.928Z" fill="#F0C0A1"/>
<path d="M219.881 111.072C195.666 115.822 169.529 109.593 150.059 94.442C144.143 89.8403 138.668 84.2115 136.213 77.124C133.758 70.0366 134.975 61.2902 140.712 56.4574C145.329 52.5645 151.96 51.8608 157.902 52.9394C163.844 54.023 169.365 56.6731 174.999 58.861C201.644 69.2662 231.139 69.6822 259.632 67.2324C288.131 64.7877 316.44 59.6108 345.036 59.3129C351.43 59.2462 357.994 59.4619 363.951 61.8141C369.909 64.1663 375.209 69.0762 376.38 75.3624C378.285 85.5108 369.375 94.365 360.521 99.6754C325.982 120.409 283.036 118.858 219.881 111.072Z" fill="#CC8B6A"/>
<path d="M187.15 114.898C189.605 108.381 198.341 105.643 206.656 108.776C214.976 111.909 219.727 119.731 217.272 126.248C214.817 132.766 206.081 135.503 197.766 132.37C189.446 129.237 184.696 121.415 187.15 114.898Z" fill="#EB5949"/>
<path d="M197.807 107.908C198.177 98.72 195.963 88.8489 198.711 83.5077C202.568 76.0505 229.079 70.5397 250.311 72.4451C278.635 74.9771 299.574 66.9908 293.524 116.387C289.528 149.041 265.513 170.468 240.573 171.88C212.711 173.472 196.451 140.628 197.802 107.903L197.807 107.908Z" fill="#FE8357"/>
<path d="M198.727 116.059C202.763 108.607 204.967 100.153 204.684 90.698C212.804 97.4362 223.045 101.55 233.563 102.331C236.187 102.521 238.92 102.485 241.287 101.365C243.655 100.246 245.56 97.7444 244.225 95.084C248.745 96.6248 253.372 98.1912 258.164 98.1552C262.955 98.1193 267.983 96.1779 270.192 91.9717C273.766 101.488 281.008 109.567 290.067 114.164C286.842 105.053 284.238 95.726 282.266 86.2709C254.979 79.7895 226.234 79.5224 198.829 85.4851C198.249 95.7671 198.578 106.085 198.722 116.064L198.727 116.059Z" fill="#EB5949"/>
<path d="M201.726 78.7571C202.09 93.3531 201.084 107.836 198.701 121.934C195.337 110.399 194.936 99.1926 195.342 85.5004C197.293 84.6684 199.553 79.1577 201.726 78.7571Z" fill="#232035"/>
<path d="M201.931 85.444C210.405 92.8756 221.529 97.2308 232.803 97.5287C235.098 97.5852 237.476 97.4619 239.479 96.3731C241.482 95.2843 243.007 92.968 242.499 90.7442C247.506 94.1801 253.993 95.387 259.889 93.9747C265.79 92.5623 273.617 86.8821 276.519 81.5511C251.995 77.1035 223.979 79.5841 201.931 85.444Z" fill="#232035"/>
<path d="M271.111 78.3772C271.881 95.043 283.221 111.508 299.573 127.65C304.108 114.22 307.739 99.7423 306.923 81.9312C301.017 80.3237 276.056 79.0038 271.111 78.3772Z" fill="#232035"/>
<path d="M285.871 111.842C294.34 109.136 302.922 112.315 305.043 118.945C307.164 125.575 302.018 133.151 293.554 135.857C285.085 138.564 276.504 135.385 274.382 128.754C272.261 122.124 277.407 114.549 285.871 111.842Z" fill="#FE8357"/>
<path d="M180.597 90.8006C234.117 78.9163 275.851 79.6251 331.154 91.0317C310.22 73.3902 280.859 69.8362 253.485 70.1186C226.126 70.4011 200.981 74.5149 180.597 90.8006Z" fill="#CC8B6A"/>
<path d="M217.041 117.461C218.967 117.461 220.528 115.899 220.528 113.974C220.528 112.048 218.967 110.486 217.041 110.486C215.115 110.486 213.553 112.048 213.553 113.974C213.553 115.899 215.115 117.461 217.041 117.461Z" fill="#232035"/>
<path d="M260.176 119.063C262.102 119.063 263.664 117.502 263.664 115.576C263.664 113.65 262.102 112.089 260.176 112.089C258.25 112.089 256.689 113.65 256.689 115.576C256.689 117.502 258.25 119.063 260.176 119.063Z" fill="#232035"/>
<path d="M254.989 102.284C261.065 101.072 267.623 101.863 273.16 104.472" stroke="#232035" stroke-width="2" stroke-miterlimit="10" stroke-linecap="round"/>
<path d="M208.474 101.339C212.881 98.196 221.637 98.006 226.588 100.199" stroke="#232035" stroke-width="2" stroke-miterlimit="10" stroke-linecap="round"/>
<path d="M235.052 110.64C234.112 115.576 234.164 120.701 235.191 125.632" stroke="#D65116" stroke-width="2" stroke-miterlimit="10" stroke-linecap="round"/>
<path d="M285.902 106.773C285.902 106.773 284.674 124.302 280.026 132.36C275.373 140.423 268.707 142.591 268.707 142.591C268.707 142.591 265.389 134.276 259.601 130.665C254.049 127.193 225.977 126.32 220.862 130.3C214.714 135.072 212.716 142.991 212.716 142.991C212.716 142.991 202.64 141.363 200.092 109.855L196.656 112.084C196.656 112.084 198.059 140.238 204.103 158.096C209.547 174.207 221.832 180.329 240.162 181.012C264.681 181.921 284.7 172.964 292.347 138.425C301.027 99.2236 296.507 104.945 296.507 104.945" fill="#232035"/>
<path d="M233.403 141.25C240.563 142.575 248.261 140.7 253.942 136.242" stroke="white" stroke-width="2" stroke-miterlimit="10" stroke-linecap="round"/>
<mask id="mask0_9_1757" style="mask-type:luminance" maskUnits="userSpaceOnUse" x="94" y="199" width="52" height="104">
<path d="M134.048 302.596C145.805 299.318 148.952 273.767 141.078 245.527C133.204 217.287 117.29 197.051 105.533 200.329C93.7765 203.607 90.629 229.158 98.5032 257.398C106.377 285.638 122.291 305.874 134.048 302.596Z" fill="white"/>
</mask>
<g mask="url(#mask0_9_1757)">
<path d="M134.048 302.596C145.805 299.318 148.952 273.767 141.078 245.527C133.204 217.287 117.29 197.051 105.533 200.329C93.7765 203.607 90.629 229.158 98.5032 257.398C106.377 285.639 122.291 305.874 134.048 302.596Z" fill="#F6EE61"/>
<path d="M103.041 191.427C103.041 191.427 129.357 233.875 136.208 310.383" stroke="#CBA950" stroke-width="0.61" stroke-miterlimit="10"/>
<path d="M109.014 189.763C109.014 189.763 135.33 232.211 142.181 308.719" stroke="#CBA950" stroke-width="0.61" stroke-miterlimit="10"/>
<path d="M114.987 188.099C114.987 188.099 141.303 230.547 148.154 307.055" stroke="#CBA950" stroke-width="0.61" stroke-miterlimit="10"/>
<path d="M105.455 190.754C105.455 190.754 104.9 240.695 138.622 309.71" stroke="#CBA950" stroke-width="0.61" stroke-miterlimit="10"/>
<path d="M99.4818 192.418C99.4818 192.418 98.9271 242.359 132.649 311.374" stroke="#CBA950" stroke-width="0.61" stroke-miterlimit="10"/>
<path d="M93.514 194.087C93.514 194.087 92.9593 244.028 126.681 313.043" stroke="#CBA950" stroke-width="0.61" stroke-miterlimit="10"/>
<path d="M139.151 200.158C130.707 200.158 119.629 200.985 107.093 204.215C92.2708 208.036 80.6947 213.86 72.729 218.678" stroke="#CBA950" stroke-width="0.61" stroke-miterlimit="10"/>
<path d="M140.866 206.3C132.423 206.3 121.345 207.127 108.808 210.358C93.9862 214.179 82.41 220.003 74.4443 224.82" stroke="#CBA950" stroke-width="0.61" stroke-miterlimit="10"/>
<path d="M142.582 212.448C134.138 212.448 123.06 213.275 110.524 216.505C95.7016 220.326 84.1255 226.15 76.1598 230.968" stroke="#CBA950" stroke-width="0.61" stroke-miterlimit="10"/>
<path d="M144.292 218.591C135.848 218.591 124.77 219.417 112.234 222.648C97.4118 226.469 85.8357 232.293 77.87 237.11" stroke="#CBA950" stroke-width="0.61" stroke-miterlimit="10"/>
<path d="M146.007 224.738C137.564 224.738 126.486 225.565 113.949 228.795C99.1272 232.616 87.551 238.44 79.5853 243.258" stroke="#CBA950" stroke-width="0.61" stroke-miterlimit="10"/>
<path d="M147.717 230.88C139.274 230.88 128.196 231.707 115.66 234.938C100.837 238.759 89.2613 244.583 81.2957 249.4" stroke="#CBA950" stroke-width="0.61" stroke-miterlimit="10"/>
<path d="M149.433 237.028C140.989 237.028 129.911 237.855 117.375 241.085C102.553 244.906 90.9767 250.73 83.011 255.548" stroke="#CBA950" stroke-width="0.61" stroke-miterlimit="10"/>
<path d="M151.148 243.171C142.705 243.171 131.627 243.998 119.09 247.228C104.268 251.049 92.692 256.873 84.7263 261.69" stroke="#CBA950" stroke-width="0.61" stroke-miterlimit="10"/>
<path d="M152.858 249.318C144.415 249.318 133.337 250.145 120.8 253.375C105.978 257.196 94.4023 263.021 86.4366 267.838" stroke="#CBA950" stroke-width="0.61" stroke-miterlimit="10"/>
<path d="M154.574 255.46C146.13 255.46 135.052 256.287 122.516 259.518C107.694 263.339 96.1177 269.163 88.152 273.98" stroke="#CBA950" stroke-width="0.61" stroke-miterlimit="10"/>
<path d="M156.284 261.608C147.841 261.608 136.763 262.435 124.226 265.665C109.404 269.487 97.8279 275.311 89.8622 280.128" stroke="#CBA950" stroke-width="0.61" stroke-miterlimit="10"/>
<path d="M157.999 267.75C149.556 267.75 138.478 268.577 125.941 271.808C111.119 275.629 99.5433 281.453 91.5776 286.27" stroke="#CBA950" stroke-width="0.61" stroke-miterlimit="10"/>
<path d="M159.71 273.898C151.266 273.898 140.188 274.725 127.652 277.956C112.83 281.777 101.254 287.601 93.2878 292.418" stroke="#CBA950" stroke-width="0.61" stroke-miterlimit="10"/>
<path d="M161.425 280.041C152.982 280.041 141.904 280.868 129.367 284.098C114.545 287.919 102.969 293.743 95.0032 298.561" stroke="#CBA950" stroke-width="0.61" stroke-miterlimit="10"/>
<path d="M163.14 286.188C154.697 286.188 143.619 287.015 131.082 290.246C116.26 294.067 104.684 299.891 96.7186 304.708" stroke="#CBA950" stroke-width="0.61" stroke-miterlimit="10"/>
<path d="M164.851 292.331C156.407 292.331 145.329 293.157 132.793 296.388C117.971 300.209 106.395 306.033 98.4288 310.85" stroke="#CBA950" stroke-width="0.61" stroke-miterlimit="10"/>
</g>
<path d="M128.632 300.132C128.632 300.132 97.3603 248.656 149.237 229.309C149.237 229.309 154.65 316.063 128.632 300.132Z" fill="#5A8141"/>
<path d="M137.296 300.974C137.296 300.974 119.742 235.58 79.0664 241.388C79.0664 241.388 111.705 320.152 137.296 300.974Z" fill="#729E53"/>
<mask id="mask1_9_1757" style="mask-type:luminance" maskUnits="userSpaceOnUse" x="41" y="226" width="52" height="104">
<path d="M80.998 329.006C92.7547 325.728 95.9022 300.177 88.028 271.937C80.1538 243.697 64.2398 223.461 52.483 226.739C40.7263 230.017 37.5788 255.568 45.453 283.808C53.3272 312.048 69.2412 332.284 80.998 329.006Z" fill="white"/>
</mask>
<g mask="url(#mask1_9_1757)">
<path d="M80.9981 329.006C92.7548 325.728 95.9023 300.177 88.0281 271.937C80.1539 243.697 64.2399 223.461 52.4831 226.739C40.7264 230.017 37.579 255.568 45.4532 283.808C53.3273 312.048 69.2414 332.284 80.9981 329.006Z" fill="#F6EE61"/>
<path d="M49.9982 217.841C49.9982 217.841 76.3142 260.288 83.1654 336.797" stroke="#CBA950" stroke-width="0.61" stroke-miterlimit="10"/>
<path d="M55.9658 216.177C55.9658 216.177 82.2818 258.624 89.133 335.133" stroke="#CBA950" stroke-width="0.61" stroke-miterlimit="10"/>
<path d="M61.939 214.513C61.939 214.513 88.255 256.961 95.1062 333.469" stroke="#CBA950" stroke-width="0.61" stroke-miterlimit="10"/>
<path d="M52.4117 217.168C52.4117 217.168 51.857 267.109 85.5789 336.124" stroke="#CBA950" stroke-width="0.61" stroke-miterlimit="10"/>
<path d="M46.4389 218.832C46.4389 218.832 45.8842 268.773 79.6061 337.788" stroke="#CBA950" stroke-width="0.61" stroke-miterlimit="10"/>
<path d="M40.466 220.496C40.466 220.496 39.9113 270.437 73.6332 339.452" stroke="#CBA950" stroke-width="0.61" stroke-miterlimit="10"/>
<path d="M86.108 226.566C77.6647 226.566 66.5867 227.393 54.0501 230.624C39.2281 234.445 27.652 240.269 19.6863 245.086" stroke="#CBA950" stroke-width="0.61" stroke-miterlimit="10"/>
<path d="M87.8233 232.714C79.38 232.714 68.302 233.541 55.7655 236.771C40.9435 240.592 29.3673 246.417 21.4016 251.234" stroke="#CBA950" stroke-width="0.61" stroke-miterlimit="10"/>
<path d="M89.5337 238.857C81.0903 238.857 70.0124 239.684 57.4758 242.914C42.6538 246.735 31.0776 252.559 23.1119 257.377" stroke="#CBA950" stroke-width="0.61" stroke-miterlimit="10"/>
<path d="M91.249 245.004C82.8057 245.004 71.7277 245.831 59.1911 249.061C44.3691 252.883 32.7929 258.707 24.8273 263.524" stroke="#CBA950" stroke-width="0.61" stroke-miterlimit="10"/>
<path d="M92.9592 251.147C84.5159 251.147 73.4379 251.974 60.9013 255.204C46.0793 259.025 34.5032 264.849 26.5375 269.667" stroke="#CBA950" stroke-width="0.61" stroke-miterlimit="10"/>
<path d="M94.6747 257.294C86.2313 257.294 75.1533 258.121 62.6168 261.351C47.7948 265.173 36.2186 270.997 28.2529 275.814" stroke="#CBA950" stroke-width="0.61" stroke-miterlimit="10"/>
<path d="M96.3848 263.437C87.9415 263.437 76.8636 264.263 64.327 267.494C49.505 271.315 37.9288 277.139 29.9631 281.956" stroke="#CBA950" stroke-width="0.61" stroke-miterlimit="10"/>
<path d="M98.1002 269.584C89.6569 269.584 78.5789 270.411 66.0423 273.642C51.2203 277.463 39.6441 283.287 31.6785 288.104" stroke="#CBA950" stroke-width="0.61" stroke-miterlimit="10"/>
<path d="M99.8156 275.727C91.3723 275.727 80.2943 276.554 67.7578 279.784C52.9358 283.605 41.3596 289.429 33.3939 294.247" stroke="#CBA950" stroke-width="0.61" stroke-miterlimit="10"/>
<path d="M101.526 281.874C93.0825 281.874 82.0045 282.701 69.468 285.932C54.646 289.753 43.0698 295.577 35.1041 300.394" stroke="#CBA950" stroke-width="0.61" stroke-miterlimit="10"/>
<path d="M103.241 288.017C94.7979 288.017 83.7199 288.844 71.1833 292.074C56.3613 295.895 44.7851 301.719 36.8195 306.537" stroke="#CBA950" stroke-width="0.61" stroke-miterlimit="10"/>
<path d="M104.951 294.164C96.5082 294.164 85.4302 294.991 72.8936 298.222C58.0716 302.043 46.4955 307.867 38.5298 312.684" stroke="#CBA950" stroke-width="0.61" stroke-miterlimit="10"/>
<path d="M106.667 300.307C98.2235 300.307 87.1455 301.134 74.609 304.364C59.787 308.185 48.2108 314.009 40.2451 318.827" stroke="#CBA950" stroke-width="0.61" stroke-miterlimit="10"/>
<path d="M108.382 306.454C99.9386 306.454 88.8606 307.281 76.3241 310.512C61.502 314.333 49.9259 320.157 41.9602 324.974" stroke="#CBA950" stroke-width="0.61" stroke-miterlimit="10"/>
<path d="M110.092 312.597C101.649 312.597 90.5711 313.424 78.0345 316.654C63.2125 320.475 51.6363 326.299 43.6707 331.117" stroke="#CBA950" stroke-width="0.61" stroke-miterlimit="10"/>
<path d="M111.808 318.744C103.365 318.744 92.2865 319.571 79.75 322.802C64.928 326.623 53.3518 332.447 45.3861 337.264" stroke="#CBA950" stroke-width="0.61" stroke-miterlimit="10"/>
</g>
<path d="M75.5845 326.546C75.5845 326.546 44.3124 275.069 96.1895 255.723C96.1895 255.723 101.603 342.477 75.5845 326.546Z" fill="#5A8141"/>
<path d="M84.2486 327.388C84.2486 327.388 66.6943 261.993 26.0186 267.802C26.0186 267.802 58.6568 346.565 84.2486 327.388Z" fill="#729E53"/>
<mask id="mask2_9_1757" style="mask-type:luminance" maskUnits="userSpaceOnUse" x="94" y="240" width="52" height="104">
<path d="M133.895 342.718C145.652 339.439 148.8 313.889 140.925 285.649C133.051 257.408 117.137 237.173 105.38 240.451C93.6236 243.729 90.4762 269.279 98.3504 297.52C106.225 325.76 122.139 345.996 133.895 342.718Z" fill="white"/>
</mask>
<g mask="url(#mask2_9_1757)">
<path d="M133.895 342.718C145.652 339.439 148.8 313.889 140.925 285.649C133.051 257.408 117.137 237.173 105.38 240.451C93.6236 243.729 90.4762 269.279 98.3504 297.52C106.225 325.76 122.139 345.996 133.895 342.718Z" fill="#F6EE61"/>
<path d="M102.892 231.553C102.892 231.553 129.208 274.001 136.059 350.51" stroke="#CBA950" stroke-width="0.61" stroke-miterlimit="10"/>
<path d="M108.859 229.89C108.859 229.89 135.175 272.337 142.027 348.846" stroke="#CBA950" stroke-width="0.61" stroke-miterlimit="10"/>
<path d="M114.832 228.226C114.832 228.226 141.148 270.673 147.999 347.182" stroke="#CBA950" stroke-width="0.61" stroke-miterlimit="10"/>
<path d="M105.305 230.881C105.305 230.881 104.751 280.821 138.473 349.837" stroke="#CBA950" stroke-width="0.61" stroke-miterlimit="10"/>
<path d="M99.3326 232.545C99.3326 232.545 98.7779 282.485 132.5 351.501" stroke="#CBA950" stroke-width="0.61" stroke-miterlimit="10"/>
<path d="M93.3594 234.209C93.3594 234.209 92.8048 284.15 126.527 353.165" stroke="#CBA950" stroke-width="0.61" stroke-miterlimit="10"/>
<path d="M139.002 240.279C130.558 240.279 119.48 241.106 106.944 244.336C92.1219 248.157 80.5458 253.981 72.5801 258.799" stroke="#CBA950" stroke-width="0.61" stroke-miterlimit="10"/>
<path d="M140.712 246.427C132.269 246.427 121.191 247.254 108.654 250.484C93.8321 254.305 82.256 260.129 74.2903 264.947" stroke="#CBA950" stroke-width="0.61" stroke-miterlimit="10"/>
<path d="M142.427 252.569C133.984 252.569 122.906 253.396 110.369 256.627C95.5475 260.448 83.9713 266.272 76.0056 271.089" stroke="#CBA950" stroke-width="0.61" stroke-miterlimit="10"/>
<path d="M144.143 258.717C135.699 258.717 124.621 259.544 112.085 262.774C97.2629 266.595 85.6867 272.419 77.7211 277.237" stroke="#CBA950" stroke-width="0.61" stroke-miterlimit="10"/>
<path d="M145.853 264.859C137.41 264.859 126.332 265.686 113.795 268.917C98.9731 272.738 87.3969 278.562 79.4313 283.379" stroke="#CBA950" stroke-width="0.61" stroke-miterlimit="10"/>
<path d="M147.568 271.007C139.125 271.007 128.047 271.834 115.51 275.064C100.688 278.885 89.112 284.709 81.1464 289.527" stroke="#CBA950" stroke-width="0.61" stroke-miterlimit="10"/>
<path d="M149.279 277.149C140.835 277.149 129.757 277.976 117.221 281.207C102.399 285.028 90.8226 290.852 82.8569 295.669" stroke="#CBA950" stroke-width="0.61" stroke-miterlimit="10"/>
<path d="M150.994 283.297C142.551 283.297 131.473 284.124 118.936 287.354C104.114 291.175 92.5379 297 84.5723 301.817" stroke="#CBA950" stroke-width="0.61" stroke-miterlimit="10"/>
<path d="M152.704 289.439C144.261 289.439 133.183 290.266 120.646 293.497C105.824 297.318 94.2479 303.142 86.2822 307.959" stroke="#CBA950" stroke-width="0.61" stroke-miterlimit="10"/>
<path d="M154.42 295.587C145.976 295.587 134.898 296.414 122.362 299.644C107.54 303.465 95.9636 309.289 87.9979 314.107" stroke="#CBA950" stroke-width="0.61" stroke-miterlimit="10"/>
<path d="M156.135 301.73C147.692 301.73 136.614 302.557 124.077 305.787C109.255 309.608 97.6789 315.432 89.7133 320.25" stroke="#CBA950" stroke-width="0.61" stroke-miterlimit="10"/>
<path d="M157.845 307.877C149.402 307.877 138.324 308.704 125.787 311.935C110.965 315.756 99.3889 321.58 91.4232 326.397" stroke="#CBA950" stroke-width="0.61" stroke-miterlimit="10"/>
<path d="M159.56 314.02C151.117 314.02 140.039 314.846 127.502 318.077C112.68 321.898 101.104 327.722 93.1385 332.539" stroke="#CBA950" stroke-width="0.61" stroke-miterlimit="10"/>
<path d="M161.271 320.167C152.828 320.167 141.75 320.994 129.213 324.224C114.391 328.045 102.815 333.869 94.8491 338.687" stroke="#CBA950" stroke-width="0.61" stroke-miterlimit="10"/>
<path d="M162.986 326.31C154.543 326.31 143.465 327.136 130.928 330.367C116.106 334.188 104.53 340.012 96.5642 344.829" stroke="#CBA950" stroke-width="0.61" stroke-miterlimit="10"/>
<path d="M164.701 332.457C156.258 332.457 145.18 333.284 132.643 336.515C117.821 340.336 106.245 346.16 98.2795 350.977" stroke="#CBA950" stroke-width="0.61" stroke-miterlimit="10"/>
</g>
<path d="M128.479 340.258C128.479 340.258 97.2065 288.782 149.084 269.435C149.084 269.435 154.497 356.19 128.479 340.258Z" fill="#5A8141"/>
<path d="M137.143 341.101C137.143 341.101 119.588 275.706 78.9126 281.515C78.9126 281.515 111.551 360.278 137.143 341.101Z" fill="#729E53"/>
<mask id="mask3_9_1757" style="mask-type:luminance" maskUnits="userSpaceOnUse" x="140" y="228" width="52" height="104">
<path d="M180.155 330.806C191.911 327.528 195.059 301.978 187.185 273.737C179.311 245.497 163.397 225.261 151.64 228.54C139.883 231.818 136.736 257.368 144.61 285.609C152.484 313.849 168.398 334.085 180.155 330.806Z" fill="white"/>
</mask>
<g mask="url(#mask3_9_1757)">
<path d="M180.155 330.806C191.911 327.528 195.059 301.978 187.185 273.737C179.311 245.497 163.397 225.261 151.64 228.54C139.883 231.818 136.736 257.368 144.61 285.609C152.484 313.849 168.398 334.085 180.155 330.806Z" fill="#F6EE61"/>
<path d="M149.155 219.643C149.155 219.643 175.471 262.091 182.323 338.599" stroke="#CBA950" stroke-width="0.61" stroke-miterlimit="10"/>
<path d="M155.129 217.979C155.129 217.979 181.445 260.427 188.296 336.935" stroke="#CBA950" stroke-width="0.61" stroke-miterlimit="10"/>
<path d="M161.096 216.31C161.096 216.31 187.412 258.758 194.264 335.266" stroke="#CBA950" stroke-width="0.61" stroke-miterlimit="10"/>
<path d="M151.569 218.97C151.569 218.97 151.014 268.911 184.736 337.927" stroke="#CBA950" stroke-width="0.61" stroke-miterlimit="10"/>
<path d="M145.596 220.634C145.596 220.634 145.041 270.575 178.763 339.59" stroke="#CBA950" stroke-width="0.61" stroke-miterlimit="10"/>
<path d="M139.628 222.298C139.628 222.298 139.074 272.239 172.796 341.254" stroke="#CBA950" stroke-width="0.61" stroke-miterlimit="10"/>
<path d="M185.265 228.369C176.822 228.369 165.744 229.196 153.207 232.426C138.385 236.248 126.809 242.072 118.844 246.889" stroke="#CBA950" stroke-width="0.61" stroke-miterlimit="10"/>
<path d="M186.981 234.517C178.537 234.517 167.46 235.343 154.923 238.574C140.101 242.395 128.525 248.219 120.559 253.036" stroke="#CBA950" stroke-width="0.61" stroke-miterlimit="10"/>
<path d="M188.691 240.659C180.248 240.659 169.17 241.486 156.633 244.716C141.811 248.537 130.235 254.361 122.269 259.179" stroke="#CBA950" stroke-width="0.61" stroke-miterlimit="10"/>
<path d="M190.406 246.807C181.963 246.807 170.885 247.634 158.348 250.864C143.526 254.685 131.95 260.509 123.985 265.327" stroke="#CBA950" stroke-width="0.61" stroke-miterlimit="10"/>
<path d="M192.122 252.949C183.678 252.949 172.6 253.776 160.064 257.007C145.242 260.828 133.666 266.652 125.7 271.469" stroke="#CBA950" stroke-width="0.61" stroke-miterlimit="10"/>
<path d="M193.832 259.097C185.389 259.097 174.311 259.924 161.774 263.154C146.952 266.975 135.376 272.799 127.41 277.616" stroke="#CBA950" stroke-width="0.61" stroke-miterlimit="10"/>
<path d="M195.547 265.239C187.104 265.239 176.026 266.066 163.489 269.297C148.667 273.118 137.091 278.942 129.126 283.759" stroke="#CBA950" stroke-width="0.61" stroke-miterlimit="10"/>
<path d="M197.258 271.387C188.814 271.387 177.736 272.214 165.2 275.444C150.378 279.265 138.802 285.089 130.836 289.907" stroke="#CBA950" stroke-width="0.61" stroke-miterlimit="10"/>
<path d="M198.973 277.529C190.53 277.529 179.452 278.356 166.915 281.587C152.093 285.408 140.517 291.232 132.551 296.049" stroke="#CBA950" stroke-width="0.61" stroke-miterlimit="10"/>
<path d="M200.683 283.677C192.24 283.677 181.162 284.504 168.625 287.734C153.803 291.555 142.227 297.379 134.261 302.197" stroke="#CBA950" stroke-width="0.61" stroke-miterlimit="10"/>
<path d="M202.399 289.819C193.955 289.819 182.877 290.646 170.341 293.877C155.519 297.698 143.943 303.522 135.977 308.339" stroke="#CBA950" stroke-width="0.61" stroke-miterlimit="10"/>
<path d="M204.114 295.967C195.671 295.967 184.593 296.794 172.056 300.024C157.234 303.845 145.658 309.669 137.692 314.487" stroke="#CBA950" stroke-width="0.61" stroke-miterlimit="10"/>
<path d="M205.824 302.109C197.381 302.109 186.303 302.936 173.766 306.167C158.944 309.988 147.368 315.812 139.402 320.629" stroke="#CBA950" stroke-width="0.61" stroke-miterlimit="10"/>
<path d="M207.539 308.257C199.096 308.257 188.018 309.084 175.482 312.314C160.66 316.135 149.083 321.959 141.118 326.777" stroke="#CBA950" stroke-width="0.61" stroke-miterlimit="10"/>
<path d="M209.25 314.399C200.807 314.399 189.729 315.226 177.192 318.457C162.37 322.278 150.794 328.102 142.828 332.919" stroke="#CBA950" stroke-width="0.61" stroke-miterlimit="10"/>
<path d="M210.965 320.547C202.522 320.547 191.444 321.374 178.907 324.604C164.085 328.425 152.509 334.249 144.543 339.067" stroke="#CBA950" stroke-width="0.61" stroke-miterlimit="10"/>
</g>
<path d="M174.742 328.348C174.742 328.348 143.47 276.872 195.347 257.525C195.347 257.525 200.76 344.28 174.742 328.348Z" fill="#5A8141"/>
<path d="M183.411 329.186C183.411 329.186 165.857 263.791 125.181 269.6C125.181 269.6 157.819 348.363 183.411 329.186Z" fill="#729E53"/>
<mask id="mask4_9_1757" style="mask-type:luminance" maskUnits="userSpaceOnUse" x="186" y="215" width="52" height="104">
<path d="M225.935 318.045C237.692 314.767 240.84 289.216 232.965 260.976C225.091 232.735 209.177 212.5 197.42 215.778C185.664 219.056 182.516 244.607 190.39 272.847C198.265 301.087 214.179 321.323 225.935 318.045Z" fill="white"/>
</mask>
<g mask="url(#mask4_9_1757)">
<path d="M225.935 318.045C237.692 314.767 240.84 289.216 232.965 260.976C225.091 232.735 209.177 212.5 197.42 215.778C185.664 219.056 182.516 244.607 190.39 272.847C198.265 301.087 214.179 321.323 225.935 318.045Z" fill="#F6EE61"/>
<path d="M194.936 206.881C194.936 206.881 221.252 249.329 228.103 325.837" stroke="#CBA950" stroke-width="0.61" stroke-miterlimit="10"/>
<path d="M200.904 205.212C200.904 205.212 227.22 247.659 234.071 324.168" stroke="#CBA950" stroke-width="0.61" stroke-miterlimit="10"/>
<path d="M206.877 203.548C206.877 203.548 233.193 245.995 240.044 322.504" stroke="#CBA950" stroke-width="0.61" stroke-miterlimit="10"/>
<path d="M197.345 206.208C197.345 206.208 196.79 256.149 230.512 325.164" stroke="#CBA950" stroke-width="0.61" stroke-miterlimit="10"/>
<path d="M191.377 207.872C191.377 207.872 190.822 257.813 224.544 326.828" stroke="#CBA950" stroke-width="0.61" stroke-miterlimit="10"/>
<path d="M185.404 209.536C185.404 209.536 184.849 259.477 218.571 328.492" stroke="#CBA950" stroke-width="0.61" stroke-miterlimit="10"/>
<path d="M231.046 215.607C222.603 215.607 211.525 216.434 198.988 219.664C184.166 223.485 172.59 229.309 164.624 234.126" stroke="#CBA950" stroke-width="0.61" stroke-miterlimit="10"/>
<path d="M232.756 221.754C224.313 221.754 213.235 222.581 200.698 225.811C185.876 229.633 174.3 235.457 166.335 240.274" stroke="#CBA950" stroke-width="0.61" stroke-miterlimit="10"/>
<path d="M234.472 227.896C226.028 227.896 214.95 228.723 202.414 231.954C187.592 235.775 176.016 241.599 168.05 246.416" stroke="#CBA950" stroke-width="0.61" stroke-miterlimit="10"/>
<path d="M236.187 234.044C227.744 234.044 216.666 234.871 204.129 238.101C189.307 241.922 177.731 247.746 169.765 252.564" stroke="#CBA950" stroke-width="0.61" stroke-miterlimit="10"/>
<path d="M237.897 240.187C229.454 240.187 218.376 241.014 205.839 244.244C191.017 248.065 179.441 253.889 171.476 258.707" stroke="#CBA950" stroke-width="0.61" stroke-miterlimit="10"/>
<path d="M239.613 246.334C231.169 246.334 220.091 247.161 207.555 250.392C192.733 254.213 181.157 260.037 173.191 264.854" stroke="#CBA950" stroke-width="0.61" stroke-miterlimit="10"/>
<path d="M241.323 252.477C232.88 252.477 221.802 253.304 209.265 256.534C194.443 260.355 182.867 266.179 174.901 270.997" stroke="#CBA950" stroke-width="0.61" stroke-miterlimit="10"/>
<path d="M243.038 258.624C234.595 258.624 223.517 259.451 210.98 262.682C196.158 266.503 184.582 272.327 176.617 277.144" stroke="#CBA950" stroke-width="0.61" stroke-miterlimit="10"/>
<path d="M244.748 264.767C236.305 264.767 225.227 265.594 212.69 268.824C197.868 272.645 186.292 278.469 178.327 283.287" stroke="#CBA950" stroke-width="0.61" stroke-miterlimit="10"/>
<path d="M246.464 270.914C238.021 270.914 226.943 271.741 214.406 274.972C199.584 278.793 188.008 284.617 180.042 289.434" stroke="#CBA950" stroke-width="0.61" stroke-miterlimit="10"/>
<path d="M248.179 277.057C239.736 277.057 228.658 277.884 216.121 281.114C201.299 284.935 189.723 290.759 181.758 295.577" stroke="#CBA950" stroke-width="0.61" stroke-miterlimit="10"/>
<path d="M249.889 283.199C241.446 283.199 230.368 284.026 217.831 287.257C203.009 291.078 191.433 296.902 183.468 301.719" stroke="#CBA950" stroke-width="0.61" stroke-miterlimit="10"/>
<path d="M251.605 289.347C243.161 289.347 232.083 290.174 219.547 293.404C204.725 297.225 193.149 303.049 185.183 307.866" stroke="#CBA950" stroke-width="0.61" stroke-miterlimit="10"/>
<path d="M253.315 295.495C244.872 295.495 233.794 296.322 221.257 299.552C206.435 303.373 194.859 309.197 186.893 314.014" stroke="#CBA950" stroke-width="0.61" stroke-miterlimit="10"/>
<path d="M255.03 301.637C246.587 301.637 235.509 302.464 222.972 305.694C208.15 309.515 196.574 315.339 188.609 320.157" stroke="#CBA950" stroke-width="0.61" stroke-miterlimit="10"/>
<path d="M256.741 307.779C248.297 307.779 237.219 308.606 224.683 311.837C209.861 315.658 198.285 321.482 190.319 326.299" stroke="#CBA950" stroke-width="0.61" stroke-miterlimit="10"/>
</g>
<path d="M220.523 315.581C220.523 315.581 189.251 264.104 241.128 244.758C241.128 244.758 246.541 331.512 220.523 315.581Z" fill="#5A8141"/>
<path d="M229.187 316.423C229.187 316.423 211.633 251.029 170.957 256.837C170.957 256.837 203.595 335.6 229.187 316.423Z" fill="#729E53"/>
<path d="M14.273 307.096C14.1805 305.417 14.1394 303.732 14.0162 302.053C13.8981 300.373 13.7234 298.699 13.518 297.03C13.3896 296.003 13.405 294.416 12.1519 294.067C10.796 293.681 9.83561 294.97 9.25013 295.987C8.5003 297.292 8.03808 298.776 7.56044 300.199C7.04173 301.74 6.55896 303.296 6.28676 304.898C6.04537 306.336 5.64991 308.2 6.6514 309.418C6.74384 309.525 6.87738 309.567 7.01604 309.577C7.97644 310.07 8.92144 310.614 9.87157 311.133C10.5649 311.508 11.2582 311.888 11.9516 312.263C12.1621 312.376 12.4189 312.586 12.6501 312.643C12.6706 312.648 12.6809 312.643 12.6963 312.648C12.7117 312.669 12.7271 312.684 12.7528 312.715C13.1842 313.177 13.9237 312.915 14.0984 312.36C14.3603 311.559 14.2884 310.63 14.3141 309.793C14.3397 308.894 14.3141 308 14.2678 307.101L14.273 307.096Z" fill="#FE8357"/>
<path d="M145.76 329.966C145.76 329.966 207.673 307.312 247.835 295.12C287.997 282.922 287.997 284.406 287.997 284.406C287.997 284.406 280.591 352.548 275.651 357.982C270.715 363.416 149.243 393.538 149.243 393.538L145.766 329.971L145.76 329.966Z" fill="#A3611F"/>
<path d="M10.4877 289.342L145.76 329.966L149.242 393.532L19.8657 361.926L10.4877 289.342Z" fill="#A3611F"/>
<path d="M145.704 331.409C153.012 329.627 160.074 326.905 167.151 324.378C174.249 321.846 181.347 319.309 188.444 316.777C199.024 312.997 209.589 309.14 220.256 305.607C237.543 299.88 254.989 294.626 272.451 289.475C277.423 288.006 282.389 286.43 287.417 285.161C289.353 284.673 288.531 281.679 286.59 282.167C282.399 283.225 278.265 284.545 274.125 285.767C265.831 288.217 257.552 290.708 249.283 293.24C240.224 296.018 231.18 298.838 222.182 301.796C212.182 305.078 202.347 308.781 192.466 312.401C184.546 315.303 176.627 318.205 168.707 321.107C160.834 323.993 152.786 326.648 145.247 330.336C144.631 330.639 145.072 331.563 145.699 331.409H145.704Z" fill="#B78450"/>
<g opacity="0.5">
<path d="M148.75 351.886C157.932 349.359 166.966 346.257 175.995 343.248C184.849 340.294 193.698 337.316 202.542 334.332C220.22 328.359 237.805 322.016 255.236 315.365C265.235 311.554 275.204 307.661 285.142 303.702C286.626 303.111 285.984 300.677 284.474 301.272C249.587 315.124 214.416 328.451 178.876 340.536C168.743 343.982 158.508 347.166 148.467 350.859C147.835 351.09 148.077 352.066 148.75 351.886Z" fill="#3A2C1E"/>
</g>
<g opacity="0.5">
<path d="M149.864 372.65C154.404 371.895 158.846 370.483 163.268 369.229C167.701 367.971 172.117 366.656 176.524 365.29C185.147 362.62 193.724 359.805 202.265 356.883C219.542 350.977 236.659 344.603 253.715 338.086C263.124 334.491 272.708 331.137 281.947 327.126C283.103 326.623 282.281 324.671 281.084 325.082C272.466 328.035 264.028 331.64 255.518 334.902C246.993 338.173 238.452 341.403 229.885 344.572C212.942 350.833 195.907 356.842 178.686 362.301C173.925 363.811 169.154 365.28 164.373 366.728C159.422 368.228 154.332 369.455 149.494 371.304C148.652 371.628 148.975 372.799 149.864 372.655V372.65Z" fill="#3A2C1E"/>
</g>
<g opacity="0.5">
<path d="M14.4784 313.604C19.9429 316.377 25.844 318.344 31.6423 320.28C40.553 323.259 49.5253 326.042 58.5182 328.775C75.9646 334.075 93.4418 339.288 111.032 344.08C113.585 344.773 116.142 345.471 118.71 346.113C123.065 347.202 127.426 348.276 131.801 349.277C136.382 350.325 141.092 351.598 145.786 351.958C147.029 352.055 147.245 350.13 146.074 349.816C141.981 348.722 137.718 348.127 133.578 347.197C129.423 346.262 125.284 345.245 121.15 344.223C118.638 343.602 116.132 342.955 113.636 342.282C106.251 340.294 98.9012 338.173 91.5313 336.119C72.7547 330.891 54.0294 325.426 35.4891 319.402C31.4009 318.072 27.3436 316.67 23.2709 315.303C20.5695 314.4 17.8424 313.491 15.2385 312.32C14.3859 311.939 13.6258 313.162 14.4887 313.598L14.4784 313.604Z" fill="#3A2C1E"/>
</g>
<g opacity="0.5">
<path d="M16.2142 342.646C22.1204 344.886 28.2628 346.462 34.3796 348.003C43.5163 350.304 52.6888 352.446 61.8666 354.556C79.2257 358.547 96.6105 362.43 113.99 366.359C116.507 366.929 119.018 367.494 121.524 368.11C126.039 369.219 130.548 370.349 135.078 371.381C139.474 372.378 143.994 373.59 148.493 373.934C149.736 374.026 149.951 372.105 148.78 371.792C144.779 370.719 140.614 370.144 136.567 369.235C132.505 368.326 128.458 367.339 124.416 366.338C121.786 365.691 119.157 365.059 116.517 364.458C109.224 362.799 101.926 361.176 94.6178 359.589C75.646 355.471 56.6743 351.377 37.8155 346.76C30.7434 345.029 23.5327 343.468 16.6045 341.219C15.6852 340.921 15.3359 342.318 16.209 342.646H16.2142Z" fill="#3A2C1E"/>
</g>
<path d="M279.734 389.064C280.134 384.627 279.626 380.128 278.522 375.824C277.351 371.269 275.533 366.903 273.484 362.681C271.491 358.563 269.442 354.212 266.756 350.494C264.573 347.469 261.168 344.506 257.306 344.675C257.111 344.28 256.689 343.997 256.114 344.121C254.466 344.475 252.956 345.292 251.41 345.939C249.879 346.581 248.344 347.202 246.793 347.798C243.773 348.953 240.712 350.022 237.63 351.003C231.683 352.898 225.607 354.351 219.475 355.522C207.36 357.833 194.967 358.588 182.651 358.141C176.889 357.936 169.052 356.924 168.749 356.75C161.553 352.574 158.025 342.78 153.408 336.638C152.34 335.215 150.943 333.643 149.176 333.114C147.543 332.627 145.904 333.361 145.334 335.004C144.667 336.936 145.196 339.334 145.432 341.301C145.73 343.761 146.13 346.211 146.397 348.671C146.551 350.058 146.7 351.455 146.721 352.851C146.736 353.709 146.901 355.096 146.485 355.995C145.386 356.457 144.194 356.344 142.977 356.231C141.359 356.082 139.747 355.794 138.16 355.46C134.996 354.798 131.848 353.976 128.782 352.964C122.644 350.936 116.846 348.07 111.135 345.076C108.346 343.612 105.552 341.892 102.645 340.68C100.817 339.914 98.1257 339.997 97.8279 342.477C97.5813 344.511 99.3224 346.961 100.38 348.599C101.562 350.427 103.092 351.958 104.736 353.37C107.165 355.455 109.707 357.315 112.604 358.696C112.665 358.727 112.727 358.747 112.789 358.778C109.959 357.936 107.273 356.744 104.51 355.717C101.736 354.685 99.1837 352.98 96.6877 351.413C95.075 350.397 92.0809 347.669 90.0471 349.056C88.4036 350.176 88.8196 352.559 89.2767 354.171C89.8211 356.102 90.7558 357.885 91.9268 359.502C90.4733 360.946 91.0588 364.166 91.6649 365.753C92.7023 368.454 94.6282 370.657 96.8058 372.578C95.9071 376.733 98.4082 380.231 101.31 382.968C104.587 386.055 108.88 388.325 112.958 390.153C121.663 394.056 131.016 396.049 140.45 397.179C143.295 397.518 146.146 397.79 149.001 397.995C150.429 398.098 151.862 398.185 153.29 398.273C153.372 398.273 153.454 398.283 153.536 398.288C153.598 398.329 153.654 398.375 153.737 398.401C186.097 409.12 220.831 411.374 254.496 406.547C259.124 405.884 263.777 405.165 268.327 404.087C270.417 403.593 272.467 402.972 274.444 402.13C276.385 401.303 278.265 400.476 279.338 398.581C279.826 397.713 279.154 396.773 278.265 396.753C278.424 396.208 278.563 395.674 278.691 395.186C279.215 393.193 279.539 391.129 279.724 389.08L279.734 389.064Z" fill="#FE8357"/>
<path d="M41.9652 327.362C40.106 326.484 37.6819 326.335 35.6533 326.135C33.301 325.904 30.9283 325.857 28.5658 325.796C25.8489 325.724 23.127 325.647 20.4101 325.58C19.5576 325.559 18.705 325.534 17.8576 325.513C19.7887 325.369 21.7762 325.185 23.1321 325.072C27.8571 324.666 32.3715 323.716 36.7318 321.795C38.252 321.127 40.1471 320.418 40.6658 318.683C41.1435 317.075 39.7568 315.961 38.4009 315.334C36.5469 314.481 34.3385 314.548 32.3458 314.451C29.9011 314.327 27.4616 314.204 25.0272 313.968C22.1614 313.691 19.3008 313.254 16.5325 312.468C15.1818 312.083 13.8619 311.611 12.5728 311.056C11.181 310.455 9.46051 309.859 8.84421 308.334C8.74149 308.077 8.21764 307.985 7.74514 308.031C7.6681 307.754 7.45239 307.533 7.10829 307.579C0.370082 308.406 -0.323256 317.291 0.097882 322.463C0.390624 326.052 0.94016 329.632 1.86461 333.119C2.77365 336.555 4.18087 339.688 5.64972 342.908C7.00044 345.877 6.73338 349.492 8.9726 352.04C10.9756 354.315 14.3139 355.373 17.2105 355.815C22.2898 356.585 30.4352 355.265 32.6385 349.744C33.0905 348.619 32.7001 347.428 31.3905 347.222C30.5277 347.089 29.6341 347.402 28.7815 347.433C27.9752 347.464 27.1534 347.387 26.3523 347.325C26.1211 347.305 25.89 347.274 25.6589 347.248C26.3779 347.212 27.1021 347.171 27.816 347.094C31.0875 346.734 34.3025 345.825 37.1991 344.238C38.3598 343.602 39.9828 342.8 40.558 341.532C41.1948 340.125 40.3474 338.83 39.1918 338.045C37.6665 337.007 27.4154 336.982 25.5562 336.91C27.3383 336.586 35.3502 335.431 38.3958 334.604C40.0341 334.162 42.3144 333.037 43.1567 331.522C44.0247 329.961 43.6497 328.153 41.9755 327.362H41.9652Z" fill="#FE8357"/>
<g style="mix-blend-mode:multiply">
<path d="M23.3017 325.657C22.3362 325.632 21.3758 325.606 20.4103 325.58C19.5577 325.56 18.7052 325.534 17.8578 325.514C18.7206 325.452 19.5885 325.375 20.4154 325.308C16.5584 325.067 10.2875 324.856 6.60515 323.752C6.40999 323.695 6.24564 323.572 6.06075 323.49C6.05048 323.511 6.04534 323.531 6.06075 323.562C6.50243 324.682 8.04832 324.974 9.13198 325.221C10.6779 325.575 12.1518 325.765 13.7285 325.94C16.6149 326.258 20.3127 326.238 23.3069 325.657H23.3017Z" fill="#C7BAAB"/>
</g>
<g style="mix-blend-mode:multiply">
<path d="M25.5462 336.91C25.5873 336.905 25.6489 336.889 25.7002 336.884C25.1969 336.941 24.6936 336.997 24.1903 337.033C22.516 337.162 20.626 337.347 18.9466 337.393C15.8189 337.48 11.4329 337.074 8.30518 336.746C12.6655 338.476 15.4388 338.579 18.7155 338.682C21.3913 338.764 28.7458 337.834 30.2763 337.079C30.3122 337.059 30.3225 337.049 30.3379 337.033C28.1603 336.961 26.2498 336.941 25.5462 336.915V336.91Z" fill="#C7BAAB"/>
</g>
<g style="mix-blend-mode:multiply">
<path d="M31.5548 347.269C31.4983 347.254 31.4469 347.233 31.3853 347.223C30.5225 347.089 29.6288 347.403 28.7763 347.433C27.97 347.464 27.1482 347.387 26.347 347.326C26.2597 347.32 26.1724 347.305 26.0851 347.295C24.683 347.454 23.3015 347.567 21.8429 347.603C17.9191 347.711 14.17 346.74 10.1794 345.744C9.71721 345.631 14.0775 348.789 21.391 348.877C25.9105 348.933 29.295 348.08 31.5548 347.259V347.269Z" fill="#C7BAAB"/>
</g>
<g style="mix-blend-mode:multiply">
<path d="M122.824 362.296C123.147 362.229 115.665 359.949 113.312 358.999C113.122 358.922 112.932 358.835 112.742 358.752C110.416 358.054 108.187 357.135 105.932 356.256C107.94 357.705 111.053 359.574 112.768 360.273C113.8 360.694 114.874 361.053 115.957 361.315C117.005 361.567 121.756 362.532 122.824 362.306V362.296Z" fill="#C7BAAB"/>
</g>
<g style="mix-blend-mode:multiply">
<path d="M104.546 369.599C107.529 370.934 110.621 372.008 113.764 372.896C115.428 373.369 117.113 373.795 118.808 374.139C120.307 374.447 122.018 374.925 123.553 374.812C123.79 374.791 123.964 374.422 123.692 374.304C122.331 373.728 120.739 373.579 119.301 373.246C117.688 372.876 116.086 372.485 114.494 372.034C111.299 371.119 108.166 369.969 105.162 368.551C100.113 366.163 95.3832 362.994 91.4132 358.716C91.5827 358.978 91.7522 359.245 91.9371 359.497C91.6597 359.774 91.4749 360.124 91.3311 360.504C95.0802 364.376 99.5895 367.386 104.546 369.599Z" fill="#C7BAAB"/>
</g>
<g style="mix-blend-mode:multiply">
<path d="M120.523 384.683C120.795 384.719 120.919 384.349 120.641 384.257C116.178 382.773 111.859 381.319 107.632 379.224C103.837 377.344 100.262 375.038 96.8162 372.583C96.7289 372.994 96.6827 373.395 96.657 373.795C99.8823 376.425 103.421 378.608 107.191 380.405C111.325 382.382 115.973 384.052 120.528 384.683H120.523Z" fill="#C7BAAB"/>
</g>
<path d="M246.269 347.361C246.269 347.361 249.366 341.414 256.885 336.992C265.277 332.057 269.478 331.805 270.71 331.805C271.943 331.805 293.919 341.928 302.064 358.47C310.21 375.013 310.456 396.984 309.717 399.208C308.977 401.431 299.348 410.809 285.275 413.526C271.203 416.243 267.254 410.809 267.254 410.809C267.254 410.809 273.591 405.458 271.861 390.4C270.13 375.341 265.112 365.219 260.67 359.128C254.342 350.458 246.269 347.361 246.269 347.361Z" fill="#CADBDE"/>
<path d="M427.995 519.031C427.995 519.031 424.205 453.534 379.605 453.534C343.218 453.534 337.758 486.28 337.758 486.28C337.758 486.28 341.497 411.929 286.816 400.769C242.242 391.673 224.96 449.893 224.96 449.893C224.96 449.893 199.491 436.247 184.937 448.075C161.779 466.892 166.745 493.558 166.745 493.558C166.745 493.558 128.54 479.003 128.54 519.026H428L427.995 519.031Z" fill="#648D48"/>
<path d="M339.617 486.08C339.617 486.08 334.333 404.79 367.613 401.041C392.46 398.242 394.561 428.338 394.561 428.338C394.561 428.338 383.046 409.87 370.063 412.941C358.928 415.576 346.725 434.861 339.617 486.08Z" fill="#71A549"/>
<path d="M339.617 486.081C339.617 486.081 347.265 428.688 346.967 390.893C346.7 357.464 322.12 325.802 322.12 325.802C322.12 325.802 337.866 365.697 336.12 403.142C334.369 440.587 339.617 486.081 339.617 486.081Z" fill="#71A549"/>
<path d="M339.617 486.08C339.617 486.08 329.818 439.355 297.622 443.468C297.622 443.468 346.618 423.089 339.617 486.08Z" fill="#71A549"/>
</svg>
