<svg width="93" height="94" viewBox="0 0 93 94" fill="none" xmlns="http://www.w3.org/2000/svg">
<path fill-rule="evenodd" clip-rule="evenodd" d="M41.3081 0.278502C26.5865 2.56423 14.9061 13.7991 11.923 28.5595C11.2257 32.0268 10.9351 36.5983 11.245 39.2327L11.3806 40.2593H24.3202H30.0151V46.3029V52.3659L52.9692 52.3272L61.4148 52.2691L61.4535 46.3223L61.4922 40.3562L72.0298 40.298L75.2841 40.2593L75.1485 41.3247C75.0904 41.9058 74.7998 43.2036 74.548 44.1722C71.4874 55.6202 62.0346 64.4338 50.7803 66.3127C46.8868 66.9519 42.0442 66.6614 38.1701 65.5379C29.279 62.9616 21.7632 55.8332 18.5671 46.9422L17.9472 45.1988L15.1191 45.1407C12.7366 45.102 12.291 45.1407 12.291 45.3731C12.291 46.0511 13.7632 50.0414 14.8092 52.2303C16.7463 56.2594 18.8964 59.2812 21.9957 62.3611C32.3396 72.6469 47.8166 75.2619 60.9499 68.9471C72.9015 63.2134 81.0565 50.177 81.0565 36.8307V34.8356H74.8579H61.376L61.3954 31.2908L61.4341 27.7653L57.2888 27.7266L45.8989 27.6878L45.8408 27.1261C45.8021 26.6806 46.0539 26.2931 47.3324 24.9178L48.882 23.2713L49.8699 23.3682C51.9232 23.5619 53.8215 22.4965 54.8481 20.5788C55.5455 19.2616 55.9135 17.3633 55.7004 16.0461L55.5842 15.1745L54.2477 15.2132C51.7682 15.3101 49.56 16.7435 48.5527 18.913C48.1459 19.804 48.0878 20.1721 48.1653 21.373L48.2621 22.7677L47.0418 24.1043L45.8215 25.4408L45.8021 22.2834C45.8021 20.5595 45.8796 19.1454 45.9571 19.1454C46.2282 19.1454 47.5648 17.7507 47.8747 17.1502C48.6302 15.6781 48.514 13.3149 47.6035 11.5328C47.158 10.6417 45.5696 8.87903 45.221 8.87903C44.8142 8.87903 42.8965 11.281 42.5285 12.2689C41.5212 14.942 42.4704 17.8282 44.7367 19.0873C44.9885 19.2423 45.0273 19.6878 44.9885 22.3222L44.9304 25.4021L43.865 24.1236L42.819 22.8452L42.7997 21.2374C42.7997 19.8815 42.7028 19.4747 42.2766 18.6418C41.1725 16.5304 38.6544 15.0776 36.0974 15.0776C35.4195 15.0776 35.1483 15.6006 35.1483 16.9759C35.1483 19.436 36.3299 21.683 38.2282 22.7871C38.9837 23.2326 39.3517 23.3101 40.6689 23.3295L42.1992 23.3682L43.6326 24.976C44.7948 26.2931 45.0273 26.6806 44.9885 27.1455L44.9304 27.7072L33.8505 27.6685L30.0151 27.6491V31.252V34.8356H27.0127H16.7463V34.2932C16.7463 34.0026 16.8819 32.9179 17.0368 31.8912C18.0441 25.2084 20.8722 19.5328 25.6374 14.6321C32.204 7.87176 41.0369 4.69498 49.928 5.87659C59.6714 7.17441 67.7102 12.9856 72.2429 22.0316C73.2114 23.9881 74.4899 27.6103 74.8773 29.5474L75.1291 30.7677H77.9185H80.7078L80.5722 29.838C80.1654 26.9711 78.7514 22.6902 77.2405 19.6491C75.4197 16.0074 73.6569 13.528 70.8869 10.6417C65.3663 4.90806 58.4704 1.34389 50.7803 0.259131C48.3396 -0.08954 43.5745 -0.08954 41.3081 0.278502ZM34.1797 32.0271V47.985H40.4514V42.263H45.2358L51.3511 47.985L58.8772 48.0078L52.0173 41.7628C52.2458 41.7063 52.4707 41.6451 52.692 41.5791C54.2203 41.1231 55.4169 40.5076 56.282 39.7325C57.1759 38.9422 57.2791 38.0694 57.2791 37.1119C57.2791 36.1392 56.9075 35.2871 56.282 34.512C55.3905 33.4073 54.5216 32.9037 52.9934 32.463C51.5268 32.0255 49.6235 32.0263 47.8159 32.0271L47.5881 32.0271H34.1797ZM47.1822 38.4103H40.4514V34.9907H46.4636H49.434C49.5914 34.9907 49.7425 34.9872 49.8894 34.9837C50.5631 34.9678 51.1474 34.954 51.8311 35.2959C52.1943 35.4775 52.5575 35.7318 52.5575 36.7487C52.5575 37.7082 52.4929 37.7705 52.1806 38.0719L52.1217 38.1289C51.8037 38.4389 50.4275 38.4217 49.6999 38.4127H49.6999L49.699 38.4127C49.596 38.4114 49.5061 38.4103 49.434 38.4103H47.1822ZM88.9926 93.9998C88.424 93.9998 87.8952 93.925 87.4064 93.7753C86.9276 93.6257 86.4886 93.4013 86.0896 93.102C85.7006 92.7927 85.3514 92.4136 85.0422 91.9647L86.1495 90.6928C86.6383 91.3911 87.1071 91.8749 87.5561 92.1443C88.005 92.4136 88.5387 92.5483 89.1572 92.5483C89.5363 92.5483 89.8804 92.4885 90.1897 92.3688C90.4989 92.249 90.7433 92.0844 90.9229 91.8749C91.1025 91.6655 91.1923 91.426 91.1923 91.1567C91.1923 90.9771 91.1623 90.8075 91.1025 90.6479C91.0426 90.4883 90.9479 90.3437 90.8182 90.214C90.6985 90.0843 90.5388 89.9646 90.3393 89.8548C90.1498 89.7451 89.9253 89.6503 89.666 89.5705C89.4066 89.4808 89.1073 89.4059 88.7681 89.3461C88.2294 89.2363 87.7606 89.0917 87.3615 88.9121C86.9625 88.7326 86.6283 88.5081 86.359 88.2388C86.0896 87.9694 85.8901 87.6651 85.7604 87.326C85.6307 86.9768 85.5659 86.5878 85.5659 86.1588C85.5659 85.7398 85.6557 85.3508 85.8352 84.9916C86.0248 84.6325 86.2792 84.3232 86.5984 84.0639C86.9276 83.7945 87.3117 83.59 87.7506 83.4504C88.1895 83.3007 88.6634 83.2259 89.1721 83.2259C89.7108 83.2259 90.2047 83.2957 90.6536 83.4354C91.1025 83.5751 91.5015 83.7846 91.8507 84.0639C92.1998 84.3332 92.4891 84.6674 92.7186 85.0664L91.5813 86.1887C91.3818 85.8595 91.1573 85.5852 90.9079 85.3657C90.6585 85.1363 90.3842 84.9667 90.0849 84.8569C89.7857 84.7372 89.4664 84.6774 89.1273 84.6774C88.7382 84.6774 88.399 84.7372 88.1097 84.8569C87.8204 84.9767 87.591 85.1462 87.4214 85.3657C87.2618 85.5752 87.182 85.8246 87.182 86.1139C87.182 86.3234 87.2219 86.5179 87.3017 86.6975C87.3815 86.8671 87.5012 87.0217 87.6608 87.1614C87.8304 87.2911 88.0549 87.4108 88.3342 87.5205C88.6135 87.6203 88.9477 87.71 89.3368 87.7898C89.8854 87.9096 90.3742 88.0642 90.8032 88.2537C91.2322 88.4333 91.5963 88.6478 91.8955 88.8972C92.1948 89.1466 92.4193 89.4259 92.5689 89.7351C92.7285 90.0444 92.8083 90.3786 92.8083 90.7377C92.8083 91.4061 92.6537 91.9847 92.3445 92.4735C92.0352 92.9623 91.5963 93.3414 91.0276 93.6107C90.459 93.8701 89.7807 93.9998 88.9926 93.9998ZM75.148 83.3755V93.8501H79.2481C79.9963 93.8501 80.6746 93.7254 81.2831 93.476C81.8917 93.2266 82.4054 92.8725 82.8244 92.4136C83.2534 91.9447 83.5826 91.3911 83.812 90.7526C84.0415 90.1042 84.1562 89.3909 84.1562 88.6128C84.1562 87.8347 84.0415 87.1264 83.812 86.4879C83.5826 85.8495 83.2534 85.2958 82.8244 84.827C82.3954 84.3581 81.8767 83.999 81.2682 83.7496C80.6696 83.5002 79.9963 83.3755 79.2481 83.3755H75.148ZM76.7641 92.2939H79.1733C79.702 92.2939 80.1708 92.2091 80.5799 92.0395C80.9988 91.8699 81.348 91.6305 81.6273 91.3212C81.9166 91.002 82.1361 90.613 82.2857 90.1541C82.4353 89.6952 82.5102 89.1814 82.5102 88.6128C82.5102 88.0442 82.4353 87.5354 82.2857 87.0865C82.1361 86.6276 81.9166 86.2385 81.6273 85.9193C81.338 85.6001 80.9889 85.3557 80.5799 85.1861C80.1708 85.0165 79.702 84.9317 79.1733 84.9317H76.7641V92.2939ZM66.5375 93.8501V83.3755H73.1365V84.9317H68.1536V87.7H72.3135V89.2562H68.1536V92.2939H73.1365V93.8501H66.5375ZM57.927 83.3755V93.8501H64.526V92.2939H59.5431V89.2562H63.703V87.7H59.5431V84.9317H64.526V83.3755H57.927ZM52.4026 93.9998C51.8339 93.9998 51.3052 93.925 50.8164 93.7753C50.3376 93.6257 49.8986 93.4013 49.4996 93.102C49.1105 92.7927 48.7614 92.4136 48.4521 91.9647L49.5595 90.6928C50.0483 91.3911 50.5171 91.8749 50.966 92.1443C51.415 92.4136 51.9487 92.5483 52.5672 92.5483C52.9462 92.5483 53.2904 92.4885 53.5997 92.3688C53.9089 92.249 54.1533 92.0844 54.3329 91.8749C54.5125 91.6655 54.6022 91.426 54.6022 91.1567C54.6022 90.9771 54.5723 90.8075 54.5125 90.6479C54.4526 90.4883 54.3578 90.3437 54.2281 90.214C54.1084 90.0843 53.9488 89.9646 53.7493 89.8548C53.5598 89.7451 53.3353 89.6503 53.0759 89.5705C52.8166 89.4808 52.5173 89.4059 52.1781 89.3461C51.6394 89.2363 51.1705 89.0917 50.7715 88.9121C50.3725 88.7326 50.0383 88.5081 49.7689 88.2388C49.4996 87.9694 49.3001 87.6651 49.1704 87.326C49.0407 86.9768 48.9759 86.5878 48.9759 86.1588C48.9759 85.7398 49.0656 85.3508 49.2452 84.9916C49.4348 84.6325 49.6891 84.3232 50.0084 84.0639C50.3376 83.7945 50.7216 83.59 51.1606 83.4504C51.5995 83.3007 52.0734 83.2259 52.5821 83.2259C53.1208 83.2259 53.6146 83.2957 54.0635 83.4354C54.5125 83.5751 54.9115 83.7846 55.2606 84.0639C55.6098 84.3332 55.8991 84.6674 56.1285 85.0664L54.9913 86.1887C54.7918 85.8595 54.5673 85.5852 54.3179 85.3657C54.0685 85.1363 53.7942 84.9667 53.4949 84.8569C53.1956 84.7372 52.8764 84.6774 52.5372 84.6774C52.1482 84.6774 51.809 84.7372 51.5197 84.8569C51.2304 84.9767 51.001 85.1462 50.8314 85.3657C50.6718 85.5752 50.5919 85.8246 50.5919 86.1139C50.5919 86.3234 50.6319 86.5179 50.7117 86.6975C50.7915 86.8671 50.9112 87.0217 51.0708 87.1614C51.2404 87.2911 51.4648 87.4108 51.7442 87.5205C52.0235 87.6203 52.3577 87.71 52.7467 87.7898C53.2954 87.9096 53.7842 88.0642 54.2132 88.2537C54.6421 88.4333 55.0063 88.6478 55.3055 88.8972C55.6048 89.1466 55.8293 89.4259 55.9789 89.7351C56.1385 90.0444 56.2183 90.3786 56.2183 90.7377C56.2183 91.4061 56.0637 91.9847 55.7544 92.4735C55.4452 92.9623 55.0063 93.3414 54.4376 93.6107C53.869 93.8701 53.1907 93.9998 52.4026 93.9998ZM37.1809 83.3755V93.8501H43.7051V92.2939H38.797V83.3755H37.1809ZM28.5704 93.8501V83.3755H35.1694V84.9317H30.1865V87.7H34.3464V89.2562H30.1865V92.2939H35.1694V93.8501H28.5704ZM21.4598 93.7753C21.9486 93.925 22.4773 93.9998 23.046 93.9998C23.834 93.9998 24.5124 93.8701 25.081 93.6107C25.6497 93.3414 26.0886 92.9623 26.3978 92.4735C26.7071 91.9847 26.8617 91.4061 26.8617 90.7377C26.8617 90.3786 26.7819 90.0444 26.6223 89.7351C26.4727 89.4259 26.2482 89.1466 25.9489 88.8972C25.6497 88.6478 25.2855 88.4333 24.8566 88.2537C24.4276 88.0642 23.9388 87.9096 23.3901 87.7898C23.0011 87.71 22.6669 87.6203 22.3876 87.5205C22.1082 87.4108 21.8838 87.2911 21.7142 87.1614C21.5546 87.0217 21.4349 86.8671 21.3551 86.6975C21.2752 86.5179 21.2353 86.3234 21.2353 86.1139C21.2353 85.8246 21.3152 85.5752 21.4748 85.3657C21.6444 85.1462 21.8738 84.9767 22.1631 84.8569C22.4524 84.7372 22.7916 84.6774 23.1806 84.6774C23.5198 84.6774 23.839 84.7372 24.1383 84.8569C24.4376 84.9667 24.7119 85.1363 24.9613 85.3657C25.2107 85.5852 25.4352 85.8595 25.6347 86.1887L26.7719 85.0664C26.5425 84.6674 26.2532 84.3332 25.904 84.0639C25.5549 83.7846 25.1558 83.5751 24.7069 83.4354C24.258 83.2957 23.7642 83.2259 23.2255 83.2259C22.7168 83.2259 22.2429 83.3007 21.804 83.4504C21.365 83.59 20.981 83.7945 20.6518 84.0639C20.3325 84.3232 20.0781 84.6325 19.8886 84.9916C19.709 85.3508 19.6193 85.7398 19.6193 86.1588C19.6193 86.5878 19.6841 86.9768 19.8138 87.326C19.9435 87.6651 20.143 87.9694 20.4123 88.2388C20.6817 88.5081 21.0159 88.7326 21.4149 88.9121C21.8139 89.0917 22.2828 89.2363 22.8215 89.3461C23.1607 89.4059 23.46 89.4808 23.7193 89.5705C23.9787 89.6503 24.2032 89.7451 24.3927 89.8548C24.5922 89.9646 24.7518 90.0843 24.8715 90.214C25.0012 90.3437 25.096 90.4883 25.1558 90.6479C25.2157 90.8075 25.2456 90.9771 25.2456 91.1567C25.2456 91.426 25.1558 91.6655 24.9763 91.8749C24.7967 92.0844 24.5523 92.249 24.2431 92.3688C23.9338 92.4885 23.5896 92.5483 23.2106 92.5483C22.5921 92.5483 22.0583 92.4136 21.6094 92.1443C21.1605 91.8749 20.6917 91.3911 20.2028 90.6928L19.0955 91.9647C19.4048 92.4136 19.7539 92.7927 20.143 93.102C20.542 93.4013 20.981 93.6257 21.4598 93.7753ZM8.82506 93.8501L12.8802 83.3755H14.5263L18.5515 93.8501H16.8307L15.8435 91.2464H11.4615L10.4711 93.8501H8.82506ZM14.4365 87.5354L15.2534 89.6902H12.0534L12.8503 87.5953C12.9102 87.4257 12.985 87.2162 13.0748 86.9668C13.1646 86.7074 13.2543 86.4331 13.3441 86.1438C13.4439 85.8545 13.5337 85.5801 13.6135 85.3208L13.6595 85.188L13.6733 85.231L13.9726 86.1288C14.0823 86.458 14.1771 86.7573 14.2569 87.0266C14.3467 87.296 14.4065 87.4656 14.4365 87.5354ZM0.0939941 83.3755V93.8501H1.71008V89.9146H4.1021L6.31891 93.8501L8.27916 93.8651L5.84669 89.6635C5.97232 89.6109 6.09481 89.5499 6.21417 89.4807C6.71296 89.1814 7.11199 88.7874 7.41127 88.2986C7.71054 87.8097 7.86018 87.281 7.86018 86.7124C7.86018 86.0839 7.71054 85.5203 7.41127 85.0215C7.11199 84.5127 6.70797 84.1137 6.1992 83.8244C5.70041 83.5251 5.15174 83.3755 4.55319 83.3755H0.0939941ZM4.70283 88.3584H1.71008V84.9317H4.28384C4.65295 84.9317 4.98215 85.0065 5.27145 85.1562C5.57073 85.3058 5.80017 85.5153 5.95978 85.7847C6.12937 86.044 6.21417 86.3483 6.21417 86.6974C6.21417 87.0067 6.14932 87.291 6.01964 87.5504C5.88995 87.7998 5.71039 87.9993 5.48094 88.1489C5.2515 88.2886 4.99213 88.3584 4.70283 88.3584Z" fill="#116D48"/>
</svg>
