<svg width="32" height="28" viewBox="0 0 32 28" fill="none" xmlns="http://www.w3.org/2000/svg">
<path d="M27.9717 4.14715C27.2907 3.46582 26.4821 2.92534 25.5922 2.55659C24.7022 2.18784 23.7484 1.99805 22.7851 1.99805C21.8217 1.99805 20.8679 2.18784 19.9779 2.55659C19.088 2.92534 18.2794 3.46582 17.5984 4.14715L16.1851 5.56048L14.7717 4.14715C13.3961 2.77156 11.5304 1.99876 9.58505 1.99876C7.63968 1.99876 5.77398 2.77156 4.39839 4.14715C3.0228 5.52274 2.25 7.38844 2.25 9.33381C2.25 11.2792 3.0228 13.1449 4.39839 14.5205L5.81172 15.9338L16.1851 26.3071L26.5584 15.9338L27.9717 14.5205C28.653 13.8395 29.1935 13.0309 29.5623 12.141C29.931 11.251 30.1208 10.2971 30.1208 9.33381C30.1208 8.3705 29.931 7.41662 29.5623 6.52667C29.1935 5.63673 28.653 4.82816 27.9717 4.14715V4.14715Z" stroke="#20BFA9" stroke-width="3" stroke-linecap="round" stroke-linejoin="round"/>
</svg>
